<svg xmlns="http://www.w3.org/2000/svg" xmlns:xlink="http://www.w3.org/1999/xlink" width="300" height="39.992" viewBox="0 0 300 39.992">
  <defs>
    <clipPath id="clip-path">
      <rect id="Rectangle_6484" data-name="Rectangle 6484" width="300" height="39.992" fill="none"/>
    </clipPath>
  </defs>
  <g id="Group_75284" data-name="Group 75284" clip-path="url(#clip-path)">
    <path id="Path_12603" data-name="Path 12603" d="M6.469,40.95c-.121-.732-.081-.92-1.04-.94-.6-.007-1.108.114-1.081.765.034.819,1.168.866,1.98,1.222,1.074.45,1.6,1.141,1.6,1.933,0,1.155-.826,1.994-2.457,1.994-2.289,0-2.6-.9-2.786-2.242l1.41.034c.054.893.51,1.235,1.195,1.235.644,0,1.2-.087,1.242-.8.054-.906-.805-.846-1.577-1.128-1.094-.4-2.135-.712-2.161-1.967-.034-1.443.852-2.088,2.678-2.088a2.07,2.07,0,0,1,2.316,2Z" transform="translate(-0.884 -12.812)" fill="#181512" fill-rule="evenodd"/>
    <path id="Path_12604" data-name="Path 12604" d="M15.825,45.7c-.262.873-.732,1.248-2.054,1.248-.993,0-2.081-.544-2.081-1.336V42.08h1.289l-.02,3.363c0,.631.383.7.812.7.315,0,.732-.121.718-.651l.027-3.41,1.336.007" transform="translate(-3.843 -13.835)" fill="#181512" fill-rule="evenodd"/>
    <path id="Path_12605" data-name="Path 12605" d="M22.463,42.08l-.007,1.054-1.195,1.6c-.235.3-.322.45-.53.691l-.349.45,2.128-.007v.953H18.65V45.96L20.026,44.2c.228-.3.416-.55.618-.8l.282-.356-2.114.007V42.08Z" transform="translate(-6.132 -13.835)" fill="#181512" fill-rule="evenodd"/>
    <path id="Path_12606" data-name="Path 12606" d="M37.025,42.08,35.253,47a2.079,2.079,0,0,1-.564.893c-.409.389-1.759.275-2.108.275l.02-.886c.55-.047,1.7.315,1.416-.7a1.686,1.686,0,0,0-.074-.228L32.36,42.08h1.282l.779,2.43c.2.624.289.826.376.745l.1-.208c.087-.248.121-.322.208-.591l.805-2.376Z" transform="translate(-10.639 -13.835)" fill="#181512" fill-rule="evenodd"/>
    <path id="Path_12607" data-name="Path 12607" d="M42.076,42.829c-.577,0-.946.188-.946,1.571,0,1.571.423,1.671.946,1.7.987.04.953-.96.953-1.7,0-.685.06-1.557-.953-1.571m2.289,1.537c0,1.806-.638,2.531-2.242,2.531-1.846,0-2.343-.98-2.343-2.47,0-1.557.5-2.437,2.343-2.437s2.242.987,2.242,2.376" transform="translate(-13.078 -13.805)" fill="#181512" fill-rule="evenodd"/>
    <path id="Path_12608" data-name="Path 12608" d="M5.842,53.5a1.032,1.032,0,0,0-1.108-.772c-.5,0-1,.114-1,.772s.7.611,1.275.819c.7.262,1.423.309,1.423,1.269s-.94,1.342-1.759,1.342a1.662,1.662,0,0,1-1.564-1.3h.47a1.189,1.189,0,0,0,1.094.893c.618,0,1.255-.081,1.269-.893.013-.7-.477-.752-1.087-.906-.926-.248-1.571-.383-1.571-1.188,0-.866.7-1.215,1.5-1.215a1.45,1.45,0,0,1,1.524,1.168Z" transform="translate(-1.022 -17.201)" fill="#181512" fill-rule="evenodd"/>
    <path id="Path_12609" data-name="Path 12609" d="M12.814,56.343h-.47V53.973c0-.765-.268-1.457-1.061-1.457-.544,0-.832.4-.987.92a1.437,1.437,0,0,0-.054.47v2.437h-.49L9.72,50.53h.524v2.128c.228-.47.591-.577,1.168-.577.423,0,1.4.242,1.4,1.839Z" transform="translate(-3.196 -16.613)" fill="#181512" fill-rule="evenodd"/>
    <path id="Path_12610" data-name="Path 12610" d="M16.647,56.39h-.47v-4.2h.47Zm-.235-5.054a.373.373,0,0,1-.342-.4.378.378,0,0,1,.356-.4.407.407,0,0,1-.013.805" transform="translate(-5.283 -16.613)" fill="#181512" fill-rule="evenodd"/>
    <path id="Path_12611" data-name="Path 12611" d="M22.122,57.149h-.47v-2.4c0-.779-.268-1.483-1.081-1.483a1.316,1.316,0,0,0-1.208,1.363v2.524h-.47V54.021c0-.423-.013-.732-.034-1.074h.43l.034.765h.013a1.518,1.518,0,0,1,1.376-.873c.423,0,1.41.255,1.41,1.846Z" transform="translate(-6.201 -17.372)" fill="#181512" fill-rule="evenodd"/>
    <path id="Path_12612" data-name="Path 12612" d="M30.367,52.99l-1.275,4.423H28.7l-.7-2.4c-.154-.524-.275-.98-.376-1.483h-.013c-.107.524-.248,1-.4,1.5l-.725,2.383h-.4L24.91,52.99h.463l.611,2.443c.128.517.235.967.322,1.4h.02c.094-.416.222-.886.376-1.383l.732-2.457h.4l.7,2.43c.154.524.268.98.362,1.41h.027c.074-.423.195-.873.336-1.4l.651-2.437Z" transform="translate(-8.19 -17.421)" fill="#181512" fill-rule="evenodd"/>
    <path id="Path_12613" data-name="Path 12613" d="M36.327,54.891c-.893-.04-1.98,0-1.98,1.027,0,.611.477.772.886.772a.989.989,0,0,0,1.074-1Zm.5,1.188v1.034h-.436l-.013-.631-.027.047a1.2,1.2,0,0,1-1.168.6,1.218,1.218,0,0,1-1.329-1.141c0-1.04.846-1.584,2.49-1.51,0,0,.195-1.329-.893-1.369a.952.952,0,0,0-1.04.812l-.336-.007a1.3,1.3,0,0,1,1.262-1.188c1.161,0,1.49.785,1.49,1.624Z" transform="translate(-11.129 -17.336)" fill="#181512" fill-rule="evenodd"/>
    <path id="Path_12614" data-name="Path 12614" d="M42.076,53.373a3.255,3.255,0,0,0-.362,0c-.678,0-1.034.738-1.034,1.544v2.228h-.47v-2.9l.007-1.316h.443l-.007.765a1.04,1.04,0,0,1,1.134-.725,2.071,2.071,0,0,1,.289,0Z" transform="translate(-13.22 -17.402)" fill="#181512" fill-rule="evenodd"/>
    <path id="Path_12615" data-name="Path 12615" d="M43.93,51.37h.51l-.007,1.108h.933v.389h-.913l.007,2.765c0,.564.228.564.45.571a2.5,2.5,0,0,0,.456-.007v.436H44.89c-.846,0-.967-.383-.967-1.054V52.867l-.5-.007v-.4h.5Z" transform="translate(-14.275 -16.889)" fill="#181512" fill-rule="evenodd"/>
    <path id="Path_12616" data-name="Path 12616" d="M29.635,45.7c-.262.873-.732,1.248-2.054,1.248-.993,0-2.081-.544-2.081-1.336V42.08h1.289l-.02,3.363c0,.631.383.7.812.7.309,0,.732-.121.718-.651l.027-3.41,1.336.007" transform="translate(-8.384 -13.835)" fill="#181512" fill-rule="evenodd"/>
    <path id="Path_12617" data-name="Path 12617" d="M20.609,0,12.44,8l8.169,7.592,8.209-7.645Z" transform="translate(-4.09)" fill="#e20a16"/>
    <path id="Path_12618" data-name="Path 12618" d="M8,12.34,0,20.207l8,8.142,7.31-7.659Z" transform="translate(0 -4.057)" fill="#005092"/>
    <path id="Path_12619" data-name="Path 12619" d="M33.75,12.34l8.008,7.867L33.75,28.349,26.44,20.69Z" transform="translate(-8.693 -4.057)" fill="#005092"/>
    <path id="Path_12620" data-name="Path 12620" d="M85.974,25.265H96.8L96.707,33.5c-.188.852-.443,1.195-.725,1.329l-1.04.443-2.745.06-.228-1.094-.309-.866,2.114.034.443-.315.262-.4.02-5.437H90.988l-.121,9.914h-2.5l.034-9.914-2.4-.034Zm1.356-3.853-1.631,1.7c-.275-.134-.262-.409-.893-1.04l-.369-.685a23.063,23.063,0,0,0,5.3-7.592h3.074l1.846,3.061a23.84,23.84,0,0,0,3.41,4.3l-.342.6a6.682,6.682,0,0,1-.826,1.014s-.758-.691-.946-.913c-2.047-2.5-2.745-2.812-4.417-6.35a25.526,25.526,0,0,1-3.7,5.148l7.108.007.248.289-.027,1.691H87.4Zm-4.611,6.531h2.02l-.027.477a8.937,8.937,0,0,0-.349,2.114l-.154.6-.128.477-1.926-.034.409-2.4Zm-5.551-8.249,6.189-.114a16.29,16.29,0,0,1-2.906-4.041l-.289.02a23.373,23.373,0,0,1-2.994,4.135m-2.625,8.283,2.088-.034.121.571c.336.993.087.3.195,1.087a5.783,5.783,0,0,1,.409,1.436l.443,1.457H75.744l-.631-2.182ZM78.4,13.8h3.316A32.873,32.873,0,0,0,85.4,18.948l-.665.852-.6.785-.409-.564v1.517l-2.638.047v2.826H84.96l.034,1.859-3.913.034.013,7.35,1.671-.195,1.671-.389c.282-.128.309-.2.591-.2l.094,1.765-3.255.886-3.249.7-2.96.557-.7.134L74.576,35.9l-.443-1.457.819-.06a13.806,13.806,0,0,0,1.772-.034c.43-.013,1.148-.154,1.832-.248V26.365l-4.262-.034v-1.92h4.289l-.027-2.806-1.457-.02-1.228-.047L75.9,21,74.482,22.17l-.222-.034-.161-.255-.188-.409a5.836,5.836,0,0,0-.752-.98L75.268,18.6c2.094-2.859,2.846-3.96,3.128-4.8" transform="translate(-24.053 -4.537)" fill="#181512" fill-rule="evenodd"/>
    <path id="Path_12621" data-name="Path 12621" d="M170.328,19.27h2.443v3.47c-.322,2.484-.128,3.309-.933,5.4a13.614,13.614,0,0,1-3.5,5.558l-1.228.973-1.893,1.074-2.054.732-1.483.315-.946.228h-6.061V34.359l5.457.034a11.961,11.961,0,0,0,7.518-3.725,18.784,18.784,0,0,0,2.557-6.41ZM154.38,23l8.813.027V25.4l-8.813-.034Zm.168-8.115h8.739l.027,2.369-8.766.007Z" transform="translate(-50.755 -4.892)" fill="#181512" fill-rule="evenodd"/>
    <path id="Path_12622" data-name="Path 12622" d="M201.318,19.364h2.43v2.873c-.571,6.377-1.765,8.343-3.564,10.545a10.2,10.2,0,0,1-4.517,3.282,19.444,19.444,0,0,1-3.853.96H185.94V34.238l4.229.02,1.866-.054,1.436-.255,1.188-.315,1.671-.852c2.208-1.926,2.94-2.564,3.86-4.531a16.577,16.577,0,0,0,1.034-4.437ZM185.94,14.88h9.129v2.531l-9.129.027Z" transform="translate(-61.131 -4.892)" fill="#181512" fill-rule="evenodd"/>
    <path id="Path_12623" data-name="Path 12623" d="M218.59,15.31H236.2v6.216c-.248,4.269-.571,5.779-1.356,7.8a8.227,8.227,0,0,1-1.645,2.812c-2.155,2.383-2.43,2.678-4.8,3.786a9.518,9.518,0,0,1-3.692,1.242H221.3v-2.41l2.812.034c4.289-.92,5.189-2.088,6.4-3.443,1.329-1.483,2.282-2.873,2.833-6.35l.114-7.222-12.216-.067V24.68H218.59Z" transform="translate(-71.866 -5.033)" fill="#181512" fill-rule="evenodd"/>
    <rect id="Rectangle_6482" data-name="Rectangle 6482" width="14.901" height="2.564" transform="translate(167.781 19.016)" fill="#181512"/>
    <path id="Path_12624" data-name="Path 12624" d="M316.69,25.851l1.108.04,3.316-.04-.383,1.517a31.92,31.92,0,0,1-4.356,7.1l-.665.886.537.248.631.571a34.983,34.983,0,0,0,5.088-6.786l.5-.886.06,8.847h2.336V27.71l1.047,2.625,1.987,3.383,2.081,2.517.51-.47.5-.443.537-.6c-2.524-2.718-4.323-4.913-5.5-8.833h4.739V24.274H324.8l.04-4.611,5.269-.034.034-1.483-5.37-.027.027-3.678H322.53l-.027,3.678h-2.43l.121-.443.289-.758.221-1.2-.765-.242c-.893-.262-.9-.242-1.255-.329,0,.658-.389,1.987-.537,2.94l-.792,2.618-.826,2.275,1.047.571c.4-.611.53-.852.6-.852l.51-1.061c.315-.805.819-1.866.819-2l3.027-.007.034,4.672h-5.806Z" transform="translate(-103.796 -4.747)" fill="#181512"/>
    <path id="Path_12625" data-name="Path 12625" d="M311.194,27.052a3.715,3.715,0,0,0-.792-1.2,6.011,6.011,0,0,0-.886-.7v12.2h-2.4l-.06-10.27c-.074,0-.6,1.141-1.014,1.738l-1.7,2.524-1.04-1.289.6-.886,1.671-3.316,1.483-3.98.034-.785-2.967-.034.034-1.832,2.9-.034V14.44h2.463v4.685l2.651.034v1.987l-2.618-.06-.034,1.953a10.053,10.053,0,0,1,2.651,2.336Z" transform="translate(-99.716 -4.747)" fill="#181512"/>
    <path id="Path_12626" data-name="Path 12626" d="M428.733,14.51h2.336l-.034,5.806h4.672l.034,1.577H431.1l-.027,13.3,5.048-.034v1.671l-13.29-.034v-1.6l5.84-.034.034-13.264h-4.45l-.034-1.577h4.517ZM414.966,31.116l-.946-1.282c4.544-3.551,6.068-6.685,6.974-9.8h-5.967V18.484l3.255-.027-.034-3.947h2.5l-.034,3.974h2.651l-.06,1.363a17.483,17.483,0,0,1-.664,2.336l-1.014,2.175-.785,1.2,2.369,1.832,1.51,1.389-.376.376-.5.852-.349.443a22.36,22.36,0,0,0-2.309-2.524l-.436-.349v9.787h-2.5l-.034-8.78a12.788,12.788,0,0,1-2.463,1.994Z" transform="translate(-136.117 -4.77)" fill="#181512" fill-rule="evenodd"/>
    <path id="Path_12627" data-name="Path 12627" d="M119.792,22.216l.758-3.947,14.774-.034-.06-1.96-14.237.034.47-2.839h-2.49L116.765,24.3l14.344-.007-.362,3.45-16.667.222v1.926h16.479l-.564,3.249-.416.792-.376.564-.631.222h-6.316l.852,2.275h6.6l1.423-.826.665-.973.537-1.235.376-1.772.349-2.235,4.544-.128V27.962l-4.262-.128.443-5.558" transform="translate(-37.506 -4.429)" fill="#181512"/>
    <path id="Path_12628" data-name="Path 12628" d="M389.176,16.812l-2.135,2.524L385.9,20.43l-1.819,1.517H394.74l-1.685-1.3-2.772-2.611Zm1.356-1.732.55.846.879.926,1.6,1.685,1.638,1.155,2.759,1.732,2.188,1.007-1.45,2.114-2.745-1.7-.1.913-13.606-.027-.047-.772-3.014,1.591-1.148-1.8,1-.383,1.853-.967,1.685-1.007,1.262-.926,1.168-.98,1.4-1.631L387.5,15.08Z" transform="translate(-124.288 -4.958)" fill="#181512" fill-rule="evenodd"/>
    <path id="Path_12629" data-name="Path 12629" d="M379.09,32.47h20.681v1.645l-12.23.06-1.423,3.188-1.866,3.094,3.014-.188,3.021-.222,2.806-.342,2.161-.49-1.745-1.973L392.474,36.2l1.611-1.067,2.873,3.215,2.578,3.6L397.7,43.27l-1.564-2.812-.96.51-1.645.443-2.651.436-2.524.383-3.98.409-3.819.222-.913-2.336,2.752-.081,1.336-3.014,1.168-3.349H379.09Z" transform="translate(-124.633 -10.675)" fill="#181512"/>
    <path id="Path_12630" data-name="Path 12630" d="M356.066,32.052l.06,1.906-9.088,2.208-3.316.6c-.262-.826-.463-1.074-.732-2.047l3.477-.571,1.926-.349-.067-8.008h-3.974V24.3h10.733l-.034,1.49h-4.229v7.538Zm.248-17.922h2.114l.034,3.886,5.652-.034v1.584h-5.558l.067,2.678a46.905,46.905,0,0,0,.5,5.679l.631,2.812a11.645,11.645,0,0,0,.946,2.779l.477.665.282.034c.06,0,.268-.154.456-.618l.289-.779a18.9,18.9,0,0,0,.423-2.329l.852.5.537.342-.094,1.141a11.476,11.476,0,0,1-.443,2.02,3.828,3.828,0,0,1-1.322,2.336l-.826.188c-1.215-.275-1.3-.322-1.832-1.1a10.888,10.888,0,0,1-1.826-4.2l-.664-3.41c-.322-3.558-.45-5.954-.571-6.88l-.094-1.859H343.185V18.03l13.129-.013Z" transform="translate(-112.764 -4.646)" fill="#181512" fill-rule="evenodd"/>
    <rect id="Rectangle_6483" data-name="Rectangle 6483" width="3.195" height="1.389" transform="translate(247.704 10.344)" fill="#181512"/>
    <path id="Path_12631" data-name="Path 12631" d="M277.89,14.61v22.8h2.651v-12.6l.826.537.973.443,1.074.376,1.047.222,1.134.094,6.82.067v-2.5l-6.538-.034-1.3-.188-1.228-.5-.946-.5-.7-.477-.5-.665-.537-1.04-.128-.537V14.61Z" transform="translate(-91.362 -4.803)" fill="#181512"/>
  </g>
</svg>
