<svg xmlns="http://www.w3.org/2000/svg" xmlns:xlink="http://www.w3.org/1999/xlink" width="220" height="40.76" viewBox="0 0 220 40.76">
  <defs>
    <clipPath id="clip-path">
      <rect id="Rectangle_6589" data-name="Rectangle 6589" width="220" height="40.76" fill="none"/>
    </clipPath>
  </defs>
  <g id="Group_75431" data-name="Group 75431" transform="translate(0 0)">
    <path id="Path_12842" data-name="Path 12842" d="M137.519,8.443H147.56V7.166h3.369V8.429h10.112v2.779H150.929v1.153h10.026v10.8H156.63l2.229,2.088h2.181v2.706h-4.126l-4.7-4.78h-1.29v4.78H147.56v-4.78h-1.006l-4.764,4.78h-4.238V25.246h2.506l2.108-2.074h-4.532V12.361h9.926V11.208H137.519Zm3.455,8.086h6.586V15.074h-6.586Zm0,3.916h6.586V19.091h-6.586Zm9.922-3.916h6.75V15.074H150.9Zm.022,3.928h6.728V19.091h-6.728Z" transform="translate(-73.989 -3.856)" fill="#008fe1"/>
    <path id="Path_12843" data-name="Path 12843" d="M193.764,8.317h24.1v2.712h-6.719v2.353h6.324v10h-6.324v2.467h6.719v2.722h-24.1v-2.69h6.821V23.4h-6.31V13.382h6.31V11.029h-6.821Zm10.089,5.066h4.107V11.059h-4.107Zm0,7.3h4.107V16.117h-4.107Zm-3.268-4.562h-3.1V20.7h3.1ZM211.131,20.7h3.007V16.139h-3.007Zm-7.279,5.18h4.107V23.39h-4.107Z" transform="translate(-104.251 -4.475)" fill="#008fe1"/>
    <path id="Path_12844" data-name="Path 12844" d="M250.5,8.894h5.421v6.914h2.068V23.4l-1.257,1.656,1.388,1.337h16.834v2.521h-18.6l-1.464-1.5-1.065,1.5h-3.841l2.436-3.247L250.5,23.59V18.439h3.083v3.935l.844.749.47-.841V18.1h-2.074V11.369h-2.34Z" transform="translate(-134.498 -4.785)" fill="#008fe1"/>
    <path id="Path_12845" data-name="Path 12845" d="M264.233,8.114h6.99v-.67h3.206v.67h6.925V11.69h1.208V14.16h-1.2v3.5h-6.936v.832h6.939V21h-6.939v.871h6.925v2.706h-6.925v.776h-3.2v-.776H266.54V21.869h4.689V21H266.54V18.492h4.689V17.66H266.54V15.019h4.689v-.851h-7V11.681h7v-1.1h-7.011Zm10.241,6.926h3.716v-.855h-3.716Zm0-3.369h3.692v-1.09h-3.692Z" transform="translate(-142.157 -4.005)" fill="#008fe1"/>
    <rect id="Rectangle_6584" data-name="Rectangle 6584" width="9.542" height="2.745" transform="translate(143.591 3.818)" fill="#008fe1"/>
    <rect id="Rectangle_6585" data-name="Rectangle 6585" width="10.985" height="2.674" transform="translate(142.798 7.256)" fill="#008fe1"/>
    <rect id="Rectangle_6586" data-name="Rectangle 6586" width="9.613" height="2.477" transform="translate(143.633 10.551)" fill="#008fe1"/>
    <rect id="Rectangle_6587" data-name="Rectangle 6587" width="9.613" height="2.672" transform="translate(143.633 13.7)" fill="#008fe1"/>
    <path id="Path_12846" data-name="Path 12846" d="M310.914,37.413h9.613v6.776h-9.613Zm2.665,4.544h4.131V39.649h-4.131Z" transform="translate(-167.281 -20.129)" fill="#008fe1"/>
    <path id="Path_12847" data-name="Path 12847" d="M333.091,17.311V15h1.385V8.265h10.532v6.772h1.381v2.275h-4.606v-6.3h-4.159v6.3Z" transform="translate(-179.213 -4.447)" fill="#008fe1"/>
    <path id="Path_12848" data-name="Path 12848" d="M332.723,29.715H345.4v4.107l-8.578,6.225h-4.5l9.56-7.118.037-.566h-9.239Z" transform="translate(-178.797 -15.987)" fill="#008fe1"/>
    <path id="Path_12849" data-name="Path 12849" d="M334.509,36.126h4.182l4.9,4.923h3.412V43.5h-5.519Z" transform="translate(-179.976 -19.437)" fill="#008fe1"/>
    <path id="Path_12850" data-name="Path 12850" d="M366.516,9.805H389.75v3.528h-9.024V23.681l-1.955,2.36H390.3v3.353H365.739V26.078H374.2l3.045-3.447V13.32H366.5Z" transform="translate(-196.778 -5.276)" fill="#008fe1"/>
    <path id="Path_12851" data-name="Path 12851" d="M431.116,13.725h8.7v2.546h-8.7Zm-.709-5.5V11.2h-1.876l-1.5-2.983h-3.883l1.837,2.983h-1.837v2.739H427.9v2.083h-4.751v2.481h10.58v.912h-10.58V21.8h10.58v.711h-10.58v2.7h4.2l-.912,1.042h-3.292v2.225H428.5l3.3-3.267h1.926v3.267h3.439V25.17h1.981l3.233,3.313H447.6V26.258h-3.062l-1.017-1.042h4.08v-2.7H437.166V21.8H447.6V19.372H437.166v-.864H447.6V16.027h-4.583V13.969h4.576V11.2H445.78l1.885-2.91h-3.653l-1.858,2.91h-1.719V8.266h-3.269V11.2h-3.588V8.221Z" transform="translate(-227.666 -4.423)" fill="#008fe1"/>
    <path id="Path_12852" data-name="Path 12852" d="M391.532,59.676h9.978V61.89h-3.155v9.242h-3.724V61.89h-3.1Z" transform="translate(-210.656 -32.108)" fill="#1a1311"/>
    <path id="Path_12853" data-name="Path 12853" d="M139.179,59.676h9.978V61.89H146v9.242h-3.723V61.89h-3.1Z" transform="translate(-74.882 -32.108)" fill="#1a1311"/>
    <g id="Group_75430" data-name="Group 75430" transform="translate(0 0)">
      <g id="Group_75429" data-name="Group 75429" clip-path="url(#clip-path)">
        <path id="Path_12854" data-name="Path 12854" d="M160.9,64.391c0-3.438.627-5.764,5.813-5.764s5.909,2.15,5.909,5.782c0,4.021-.533,6.23-5.909,6.206-5.284-.024-5.813-2.106-5.813-6.224m3.5,0c-.012,3.319.425,4.045,2.314,4.045S169,67.711,169,64.391c0-2.833-.412-3.652-2.289-3.652s-2.3.8-2.314,3.652" transform="translate(-86.566 -31.543)" fill="#1a1311"/>
        <path id="Path_12855" data-name="Path 12855" d="M244.138,64.391c0-3.438.626-5.764,5.812-5.764s5.91,2.15,5.91,5.782c0,4.021-.533,6.23-5.91,6.206-5.284-.024-5.812-2.106-5.812-6.224m3.5,0c-.011,3.319.425,4.045,2.314,4.045s2.289-.725,2.289-4.045c0-2.833-.412-3.652-2.289-3.652s-2.3.8-2.314,3.652" transform="translate(-131.353 -31.543)" fill="#1a1311"/>
        <path id="Path_12856" data-name="Path 12856" d="M318.59,64.391c0-3.438.626-5.764,5.812-5.764s5.91,2.15,5.91,5.782c0,4.021-.533,6.23-5.91,6.206-5.284-.024-5.812-2.106-5.812-6.224m3.5,0c-.011,3.319.424,4.045,2.314,4.045s2.289-.725,2.289-4.045c0-2.833-.412-3.652-2.289-3.652s-2.3.8-2.314,3.652" transform="translate(-171.411 -31.543)" fill="#1a1311"/>
        <path id="Path_12857" data-name="Path 12857" d="M425.172,64.391c0-3.438.626-5.764,5.812-5.764s5.909,2.15,5.909,5.782c0,4.021-.533,6.23-5.909,6.206-5.284-.024-5.812-2.106-5.812-6.224m3.5,0c-.012,3.319.425,4.045,2.314,4.045s2.289-.725,2.289-4.045c0-2.833-.411-3.652-2.289-3.652s-2.3.8-2.314,3.652" transform="translate(-228.755 -31.543)" fill="#1a1311"/>
        <path id="Path_12858" data-name="Path 12858" d="M193.314,58.914l3.96,11.745h-3.89l-.692-2.163h-3.573l-.675,2.163h-3.329l3.632-11.745Zm-1.137,7.416-1.3-4.375-1.313,4.375Z" transform="translate(-99.597 -31.697)" fill="#1a1311"/>
        <path id="Path_12859" data-name="Path 12859" d="M377.356,58.947l3.96,11.745h-3.89l-.693-2.161H373.16l-.675,2.161h-3.329l3.633-11.745Zm-1.137,7.417-1.3-4.375L373.6,66.364Z" transform="translate(-198.617 -31.715)" fill="#1a1311"/>
        <path id="Path_12860" data-name="Path 12860" d="M229.969,62.866c.177-2.417-.381-4.384-5.3-4.384s-5.562,2.578-5.562,5.82c0,3.617.6,5.994,5.562,5.994s5.477-1.86,5.321-4.634h-3.745c0,1.224-.092,2.42-1.485,2.42-1.554,0-1.619-.869-1.619-3.781,0-2.49.091-3.448,1.593-3.448,1.325,0,1.56.583,1.511,2.013.988,0,3.008.026,3.723,0" transform="translate(-117.886 -31.465)" fill="#1a1311"/>
        <path id="Path_12861" data-name="Path 12861" d="M270.98,71.025V59.569h6.213c1.126,0,4.214-.227,4.214,3.175,0,2.979-2.07,2.949-2.07,2.949a2.591,2.591,0,0,1,1.743,1.81c.109,1.38.39,3.522.39,3.522h-4.01a13.614,13.614,0,0,0-.1-2.32,1.733,1.733,0,0,0-1.611-1.842c-.338,0-.89.006-1.08.006v4.157Zm3.561-9.42v3.188h1.852c.981,0,1.424-.454,1.424-1.609,0-1.1-.443-1.579-1.351-1.579Z" transform="translate(-145.795 -32.048)" fill="#1a1311"/>
        <path id="Path_12862" data-name="Path 12862" d="M345.21,71.025V59.569h6.213c1.126,0,4.214-.227,4.214,3.175,0,2.979-2.071,2.949-2.071,2.949a2.591,2.591,0,0,1,1.743,1.81c.109,1.38.39,3.522.39,3.522h-4.01a13.607,13.607,0,0,0-.1-2.32,1.733,1.733,0,0,0-1.611-1.842c-.338,0-.89.006-1.08.006v4.157Zm3.561-9.42v3.188h1.852c.981,0,1.424-.454,1.424-1.609,0-1.1-.443-1.579-1.351-1.579Z" transform="translate(-185.733 -32.048)" fill="#1a1311"/>
        <path id="Path_12863" data-name="Path 12863" d="M295.479,70.988V59.533h5.43c1.525,0,4.722-.347,4.686,3.776-.036,4.051-2.688,3.915-4.413,3.915h-1.958v3.765Zm3.5-9.42v3.56h1.526c.618,0,1.453-.312,1.453-1.743,0-1.511-.8-1.816-1.453-1.816Z" transform="translate(-158.976 -32.026)" fill="#1a1311"/>
        <rect id="Rectangle_6588" data-name="Rectangle 6588" width="3.971" height="11.538" transform="translate(191.654 27.496)" fill="#1a1311"/>
        <path id="Path_12864" data-name="Path 12864" d="M462.962,59.2V70.815h-4.389L455.2,64.073v6.742h-3.1V59.35h5.012l2.619,5.391V59.2Z" transform="translate(-243.241 -31.854)" fill="#1a1311"/>
        <path id="Path_12865" data-name="Path 12865" d="M59.1,42.859c-7.56-4.168-3.751-9.978-.291-13.037.849-.75,2.7-2.374,3.4-3.069,2.83.521,3.886-1.009,3.231-2.83a52.731,52.731,0,0,0,7.1-7.149,47.956,47.956,0,0,0-8.557,5.912c-2.076-.692-4.516.4-3.35,2.84a55.514,55.514,0,0,1-5.462,3.751c-6.191,2.913-10.609,3.68-18.281-.619-6.639-3.72-5.9-12.891-5.9-12.891S20.76,31.608,41.9,43.443c16.909,9.466,35.262,3.2,35.262,3.2s-9.978.146-18.063-3.787" transform="translate(-15.341 -8.482)" fill="#e54600"/>
        <path id="Path_12866" data-name="Path 12866" d="M33.905,43.565c-.442-.291-7.793-5.827-2.4-11.872.7-.79,2.8-2.508,3.5-3.2,3.059,1.166,4.224-1.02,3.117-2.648a57.694,57.694,0,0,0,6.132-6.165,55.048,55.048,0,0,0-7.356,5.087c-1.421-.717-4.807.048-3.132,2.706-1.031.79-3.375,2.518-4.37,3.132-5.9,3.642-11.734,4.364-18.579.593S4.461,18.3,4.461,18.3-4.769,36.209,14.6,45.678a48,48,0,0,0,35.251,2.695,28.116,28.116,0,0,1-15.95-4.807" transform="translate(-1.218 -9.844)" fill="#fff"/>
        <path id="Path_12867" data-name="Path 12867" d="M35.55,50.477a47.862,47.862,0,0,1-21.112-4.828C8.471,42.733,4.6,38.72,2.948,33.723c-2.61-7.869,1.259-15.526,1.3-15.6a.109.109,0,0,1,.206.056,18.034,18.034,0,0,0,.606,5.007,12.215,12.215,0,0,0,5.687,7.789c6.4,3.525,12.1,3.344,18.47-.59.987-.61,3.258-2.284,4.282-3.066-.692-1.154-.405-1.876-.036-2.282a3.217,3.217,0,0,1,3.3-.524,55.612,55.612,0,0,1,7.319-5.056.109.109,0,0,1,.138.163,58.2,58.2,0,0,1-6.077,6.116,2.041,2.041,0,0,1,0,2.354c-.613.776-1.82.925-3.236.4-.3.3-.816.748-1.359,1.224-.786.69-1.678,1.472-2.083,1.926a6.569,6.569,0,0,0-1.888,5.324c.479,3.672,4.229,6.357,4.27,6.384A28.277,28.277,0,0,0,49.73,48.137a.108.108,0,0,1,.114.086.109.109,0,0,1-.068.125A45.053,45.053,0,0,1,35.55,50.477M4.228,18.675C3.453,20.426.936,26.967,3.155,33.656c1.639,4.938,5.467,8.907,11.379,11.8a48.575,48.575,0,0,0,34.487,2.915A29.144,29.144,0,0,1,33.727,43.53c-.038-.025-3.875-2.771-4.367-6.538a6.777,6.777,0,0,1,1.942-5.5c.414-.464,1.311-1.251,2.1-1.945.571-.5,1.111-.975,1.4-1.264a.111.111,0,0,1,.116-.025c1.352.515,2.493.4,3.053-.31a1.845,1.845,0,0,0-.065-2.175.109.109,0,0,1,.017-.142,74.224,74.224,0,0,0,5.736-5.692,64.111,64.111,0,0,0-6.819,4.781.111.111,0,0,1-.117.012,2.965,2.965,0,0,0-3.1.446c-.469.516-.431,1.244.112,2.1a.109.109,0,0,1-.026.145c-.986.755-3.359,2.508-4.379,3.138-6.36,3.926-12.3,4.115-18.689.6-5.892-3.245-6.389-10.5-6.411-12.488" transform="translate(-1.1 -9.717)" fill="#1a1311"/>
        <path id="Path_12868" data-name="Path 12868" d="M31.995,25.091c-.838-.546-8.194-4.916-1.712-11.617.737-.762,2.222-2.218,2.913-2.913.121.031,2.4.437,3.2-.583a1.905,1.905,0,0,0,.146-2.258A46.563,46.563,0,0,0,44.049,0a82.209,82.209,0,0,0-8.886,6.409c-2.986-.583-4.479.984-3.569,2.913a33.992,33.992,0,0,1-3.642,2.768c-5.9,3.86-12.745,4.734-19.055.827C2.253,8.8,2.548.021,2.548.021S-8.012,16.859,13.86,27.276c19.191,9.14,35.724,2.585,35.724,2.585a32.283,32.283,0,0,1-17.589-4.77" transform="translate(0 0)" fill="#008fe1"/>
      </g>
    </g>
  </g>
</svg>
