<svg id="Group_75425" data-name="Group 75425" xmlns="http://www.w3.org/2000/svg" xmlns:xlink="http://www.w3.org/1999/xlink" width="143.727" height="40" viewBox="0 0 143.727 40">
  <defs>
    <clipPath id="clip-path">
      <rect id="Rectangle_6581" data-name="Rectangle 6581" width="143.727" height="40" fill="none"/>
    </clipPath>
  </defs>
  <g id="Group_75424" data-name="Group 75424" clip-path="url(#clip-path)">
    <path id="Path_12817" data-name="Path 12817" d="M356.779,38.9a1.111,1.111,0,0,0,1.11,1.111h4.957a1.114,1.114,0,0,0,1.109-1.111V1.131A1.113,1.113,0,0,0,362.846.02h-4.957a1.11,1.11,0,0,0-1.11,1.111Z" transform="translate(-285.016 -0.016)" fill="#003e92"/>
    <path id="Path_12818" data-name="Path 12818" d="M678.888,38.9A1.11,1.11,0,0,0,680,40.016h4.955a1.112,1.112,0,0,0,1.11-1.111V1.131A1.111,1.111,0,0,0,684.953.02H680a1.109,1.109,0,0,0-1.11,1.111Z" transform="translate(-542.336 -0.016)" fill="#003e92"/>
    <path id="Path_12819" data-name="Path 12819" d="M10.061,40.062c6.693,0,8.415-4.6,8.415-10.224A15.17,15.17,0,0,0,17.258,23.2c-2.116-4.315-6.912-6.415-8.684-8.233C6.926,13.281,7.2,11.924,7.2,10.384c0-3.163,1.8-3.119,3.012-3.119H15.8a1.108,1.108,0,0,0,1.11-1.108V1.189A1.111,1.111,0,0,0,15.8.078H8.412C1.723.078,0,4.679,0,10.3,0,21.089,7.474,22.343,9.9,25.167a6.226,6.226,0,0,1,1.372,4.589c0,3.164-1.8,3.122-3.012,3.122H2.675a1.1,1.1,0,0,0-1.107,1.106v4.968a1.108,1.108,0,0,0,1.107,1.111Z" transform="translate(0 -0.062)" fill="#003e92"/>
    <path id="Path_12820" data-name="Path 12820" d="M426.638,40.062c6.693,0,8.412-4.6,8.412-10.224a15.155,15.155,0,0,0-1.215-6.634c-2.117-4.315-6.909-6.415-8.683-8.233-1.65-1.69-1.371-3.047-1.371-4.588,0-3.163,1.8-3.119,3.012-3.119h5.585a1.108,1.108,0,0,0,1.107-1.108V1.189A1.111,1.111,0,0,0,432.378.078H424.99c-6.692,0-8.413,4.6-8.413,10.223,0,10.788,7.474,12.042,9.9,14.866a6.228,6.228,0,0,1,1.37,4.589c0,3.164-1.8,3.122-3.012,3.122h-5.582a1.106,1.106,0,0,0-1.111,1.106v4.968a1.112,1.112,0,0,0,1.111,1.111Z" transform="translate(-332.786 -0.062)" fill="#003e92"/>
    <path id="Path_12821" data-name="Path 12821" d="M546.484,40.006c4.4,0,6.672-3.435,7.372-9.746a83.331,83.331,0,0,0,.525-10.244V1.129a1.109,1.109,0,0,0-1.11-1.111h-4.954a1.113,1.113,0,0,0-1.111,1.111V20.016a58.518,58.518,0,0,1-.676,10.256c-.419,2.013-.951,2.718-2.609,2.718h-1.784c-1.661,0-2.2-.706-2.61-2.718a58.694,58.694,0,0,1-.68-10.256V1.129A1.112,1.112,0,0,0,537.734.018h-4.951a1.109,1.109,0,0,0-1.11,1.111V20.016A83.8,83.8,0,0,0,532.2,30.26c.7,6.311,2.972,9.746,7.372,9.746Z" transform="translate(-424.732 -0.014)" fill="#003e92"/>
    <path id="Path_12822" data-name="Path 12822" d="M247.153,1.234a.956.956,0,0,0,.058-.325A.91.91,0,0,0,246.3,0h-5.48a1.113,1.113,0,0,0-1.036.77l-4.843,15.053a.867.867,0,0,1-.811.562h-.9a.717.717,0,0,1-.713-.719V1.115A1.113,1.113,0,0,0,231.4,0h-4.951a1.11,1.11,0,0,0-1.112,1.112V38.889A1.11,1.11,0,0,0,226.452,40H231.4a1.114,1.114,0,0,0,1.112-1.111V24.335a.716.716,0,0,1,.713-.717h.9a.863.863,0,0,1,.811.559l4.843,15.053a1.113,1.113,0,0,0,1.036.77h5.5a.908.908,0,0,0,.91-.91.923.923,0,0,0-.058-.323L241.138,20Z" transform="translate(-180.015)" fill="#003e92"/>
    <path id="Path_12823" data-name="Path 12823" d="M122.887,15.746c.046-1.013.108-2.228.2-3.258.1-1.12.238-2.019.261-2.2.229-1.851.852-2.933,2.348-3.033h5.231a1.124,1.124,0,0,0,1.109-1.125V1.16A1.119,1.119,0,0,0,130.932.041h-6.539c-5.84.235-7.749,3.836-8.243,9.746a90.347,90.347,0,0,0-.522,10.248,90.3,90.3,0,0,0,.522,10.244c.494,5.911,2.4,9.512,8.243,9.745h6.539a1.118,1.118,0,0,0,1.109-1.119V33.939a1.109,1.109,0,0,0-1.109-1.108l-5.231.016c-1.5-.1-2.119-1.181-2.348-3.033-.024-.183-.161-1.084-.261-2.2-.1-1.03-.2-2.244-.2-3.258a73.99,73.99,0,0,1,0-8.609" transform="translate(-92.371 -0.033)" fill="#003e92"/>
    <path id="Path_12824" data-name="Path 12824" d="M160.475,86.222a4.523,4.523,0,1,0-4.512-4.52,4.521,4.521,0,0,0,4.512,4.52" transform="translate(-124.593 -61.653)" fill="#de1e39"/>
  </g>
</svg>
