<svg id="Group_75428" data-name="Group 75428" xmlns="http://www.w3.org/2000/svg" xmlns:xlink="http://www.w3.org/1999/xlink" width="151.497" height="50" viewBox="0 0 151.497 50">
  <defs>
    <clipPath id="clip-path">
      <rect id="Rectangle_6583" data-name="Rectangle 6583" width="151.497" height="50" fill="none"/>
    </clipPath>
  </defs>
  <path id="Path_12825" data-name="Path 12825" d="M14.261,145.477l3.166-2.4,3.162,2.4-3.167,2.4ZM9.5,137.06l1.592,1.208-3.167,2.4-1.593-1.209L0,144.268l1.592,1.209-1.587,1.2,6.334,4.806,1.587-1.2,3.162,2.4-1.587,1.2,6.334,4.806,1.587-1.2,1.579,1.2,6.334-4.806-1.578-1.2,3.166-2.4,1.58,1.2,6.334-4.805-1.58-1.2,1.58-1.2L28.5,139.468l-1.581,1.2-3.162-2.4,1.58-1.2-6.333-4.806-1.581,1.2-1.591-1.207Z" transform="translate(0 -108.693)" fill="#008c4f"/>
  <g id="Group_75427" data-name="Group 75427">
    <g id="Group_75426" data-name="Group 75426" clip-path="url(#clip-path)">
      <path id="Path_12826" data-name="Path 12826" d="M395.1,141.933h-3.055v3.248h-5.3v2.205h5.254c-.286,7.336-2.068,11.42-5.254,14.669v2.868A19.43,19.43,0,0,0,394.53,152.5a15.248,15.248,0,0,0,4.555,7.977,21.043,21.043,0,0,1-7.867,2.422v2.024a23.325,23.325,0,0,0,10.027-2.843,18.833,18.833,0,0,0,9.378,2.491v-2.389a16.677,16.677,0,0,1-7.047-1.683,14.509,14.509,0,0,0,5.631-10.121H394.849c.111-.979.18-1.977.217-2.992h15.558v-2.205H395.1Zm6.178,17.042a12.236,12.236,0,0,1-3.892-6.485h8.182a12.939,12.939,0,0,1-4.29,6.485" transform="translate(-317.853 -116.648)" fill="#1a1311"/>
      <path id="Path_12827" data-name="Path 12827" d="M616.079,141.934h-2.84v3.342h-4.474v2.111h4.181a28.171,28.171,0,0,1-5.484,11.412v3.382c2.119-2.4,4.37-5.033,5.4-7.588a7.087,7.087,0,0,0,.38-1.38v11.711h2.84V153.2a11.424,11.424,0,0,0,.651,2.393,29.514,29.514,0,0,0,4.264,6.444v-3.6a34.549,34.549,0,0,1-4.648-11.048h4.648v-2.111h-4.915Z" transform="translate(-499.243 -116.649)" fill="#1a1311"/>
      <path id="Path_12828" data-name="Path 12828" d="M554.282,157.426v-3.012a22.727,22.727,0,0,1-3.721-7.027h3.721v-2.112h-3.869v-3.342H547.6v3.342h-4.843v2.112h4.661a35.192,35.192,0,0,1-4.661,11.412v3.382a27.4,27.4,0,0,0,4.385-6.74,10.046,10.046,0,0,0,.458-1.609v11.092h2.816V152.4a6.333,6.333,0,0,0,.628,1.123,46.073,46.073,0,0,0,3.241,3.9" transform="translate(-446.063 -116.649)" fill="#1a1311"/>
      <path id="Path_12829" data-name="Path 12829" d="M733.726,147.386v-2.111h-3.289c.6-.984,1.471-2.487,1.934-3.342H729.5c-.337.733-1.149,2.31-1.728,3.342h-1.882v-3.342H723.25v3.342h-2.922v-3.342H717.7v3.342h-1.688c-.622-1.093-1.569-2.688-1.969-3.342h-2.828c.487.8,1.367,2.3,1.946,3.342h-3.3v2.111H715.3c.215.6.517,1.435.714,2.021h-5.788V151.5H720.34v1.489h-9.76v2.065h9.76v1.631H709.864v2.158H716.8c-1.726,2.069-4.6,3.086-6.935,3.8v1.933c3.444-.692,8.359-2.645,10.476-5.522v5.875h2.91v-5.876c2.137,2.909,6.984,4.817,10.476,5.524v-2.026c-2.367-.728-5.516-1.818-7.092-3.708h7.092V156.68H723.25v-1.631h9.76v-2.065h-9.76V151.5h10.118v-2.088H727.53c.229-.59.55-1.435.76-2.021Zm-8.71,2.021h-6.364c-.216-.6-.523-1.433-.746-2.021h7.741c-.167.584-.43,1.431-.632,2.021" transform="translate(-583.402 -116.648)" fill="#1a1311"/>
      <path id="Path_12830" data-name="Path 12830" d="M282.02,155.058H288.2v-2.142H282.02v-5.509h6.654v-2.165h-6.854c-.623-1.128-1.491-2.625-1.972-3.307h-2.984c.52.781,1.331,2.185,1.936,3.307h-6.37v2.165h6.558v5.509h-6.08v2.142h6.08v7.31h-6.8v2.206h16.722v-2.206H282.02Z" transform="translate(-223.701 -116.649)" fill="#1a1311"/>
      <path id="Path_12831" data-name="Path 12831" d="M230.074,141.933a19.709,19.709,0,0,1-5.192,11.262v2.727a16.057,16.057,0,0,0,3.807-3.513v12.514H231.6v-17.6a21.821,21.821,0,0,0,1.423-5.391Z" transform="translate(-184.82 -116.648)" fill="#1a1311"/>
      <path id="Path_12832" data-name="Path 12832" d="M685.393,3.233a.314.314,0,0,0-.461.011l-.676.774h-3.165V2.57h3.453a.286.286,0,0,0,.213-.483l-.866-.9a.307.307,0,0,0-.452.011l-.657.753h-1.691V1.236a.307.307,0,0,1,.036-.145A.582.582,0,0,1,681.368.9c.092-.055.2-.1.231-.2a.21.21,0,0,0,0-.082c-.022-.172-.242-.215-.411-.267L680.1.014c-.12-.037-.287-.016-.225.221a7.851,7.851,0,0,1,.211,1.714h-2.2a9.334,9.334,0,0,1-1.4-.156l.317.933a2.69,2.69,0,0,1,.793-.156H680.1q0,.253,0,.506v.943h-3.669a9.435,9.435,0,0,1-1.413-.157l.32.942a2.726,2.726,0,0,1,.8-.157h1.64a3.755,3.755,0,0,1,.714,1.519.767.767,0,0,0,.1.263h-1.454a9.342,9.342,0,0,1-1.4-.156l.317.933a2.691,2.691,0,0,1,.793-.156H680.1v1c0,.192,0,.384-.008.577h-2.373a9.339,9.339,0,0,1-1.4-.156l.317.933a2.692,2.692,0,0,1,.793-.155h2.623c-.036.463-.084.972-.111,1.308-.017.219-.063.473.1.609.32.265,1.173-.082,1.173-.537,0-.376-.055-.8-.091-1.38h3.581a.286.286,0,0,0,.213-.483l-.866-.9a.308.308,0,0,0-.452.01l-.657.753H681.1c0-.114,0-.233,0-.358V7.051h4.52a.286.286,0,0,0,.213-.483l-.866-.9a.307.307,0,0,0-.452.011l-.657.753h-1.662c.3-.29.589-.563.875-.85.241-.242.35-.164.578-.281.2-.1.184-.306-.025-.4l-.556-.252h3a.292.292,0,0,0,.217-.493Zm-3.424,1.95c-.189.495-.287.747-.506,1.245h-1.822a.591.591,0,0,0,.089-.316,1.782,1.782,0,0,0-1.253-1.466h3.614a2.222,2.222,0,0,1-.122.537" transform="translate(-554.762 0)" fill="#1a1311"/>
      <path id="Path_12833" data-name="Path 12833" d="M430.976,11.1a.32.32,0,0,0-.47.011l-.689.79h-2.553V8.834h3.312a.292.292,0,0,0,.217-.493l-.883-.92a.314.314,0,0,0-.461.011l-.676.775h-1.509V5.449h3.674a.3.3,0,0,0,.22-.5l-.892-.93a.317.317,0,0,0-.465.011l-.683.782h-1.853V3.794a.326.326,0,0,1,.04-.158.632.632,0,0,1,.262-.2c.1-.059.223-.109.252-.222a.234.234,0,0,0,.006-.089c-.025-.187-.264-.234-.448-.291l-1.191-.366c-.131-.04-.313-.017-.245.24a9.2,9.2,0,0,1,.236,2.111h-2.259c.1-.266.191-.532.263-.8s.267-.342.494-.5c.2-.142.192-.34-.034-.438l-1.293-.573c-.255-.118-.34-.045-.331.125a2.879,2.879,0,0,1-.021.677A15.233,15.233,0,0,1,421.04,8.8c-.1.177-.064.268-.005.306.076.049.2.006.29-.095a15.373,15.373,0,0,0,2.326-3.56h2.53c0,.116,0,.232,0,.349V8.206h-1.631a9.425,9.425,0,0,1-1.413-.157l.32.942a2.722,2.722,0,0,1,.8-.157h1.923V11.9h-3.3a9.611,9.611,0,0,1-1.442-.16l.327.961a2.775,2.775,0,0,1,.817-.16h9.075a.3.3,0,0,0,.222-.5Z" transform="translate(-345.979 -2.012)" fill="#1a1311"/>
      <path id="Path_12834" data-name="Path 12834" d="M350.578,13.866a6.235,6.235,0,0,1-3.456.358c-.729-.231-.949-.631-.978-1.037a1.5,1.5,0,0,1,.681-1.23,11.09,11.09,0,0,1,3.649-1.692c.794-.224.778-1.466-.249-1-.445.2-1.137.561-1.844.974a26.029,26.029,0,0,0,.138-2.818,1.611,1.611,0,0,0-.968-1.669c-.387-.158-.891-.135-1,.277a.66.66,0,0,0,.4.76.9.9,0,0,1,.581.839,27.731,27.731,0,0,1,.165,3.025,10.2,10.2,0,0,0-1.547,1.143c-1.428,1.383-.6,2.771.805,3.164a9.42,9.42,0,0,0,3.675.09.853.853,0,0,0,.8-1.078c-.117-.3-.466-.25-.856-.1" transform="translate(-283.876 -4.651)" fill="#1a1311"/>
      <path id="Path_12835" data-name="Path 12835" d="M528.614,9.132c.091-.044.174-.085.247-.122.591-.3.7-.756.6-1.008s-.318-.43-.7-.163a6.974,6.974,0,0,0-.581.47c-.379-.72-.767-1.418-1.06-1.907.4-.268.489-.686.311-.919s-.544-.1-.8.163l-.012.012c-.493-.6-1.147-1.022-1.592-.634-.491.427.041.762.627,1.231a1.6,1.6,0,0,1-1.123-.031c-.378-.208-.858-.548-1.159-.208-.635.719.918,1.28,2.217,1.008-1.436.919-1.723,1.9-1.512,2.474.408,1.114,2.392.544,3.771-.027.4.816.916,1.891.429,2.006a13.319,13.319,0,0,1-2.681-.14c-.557,0-1.873.238-2.09,1.323-.241,1.2,1.114,1.819,2.213,1.939s2.32.112,2.5-.307a.594.594,0,0,0-.488-.738c-.387-.06-.537.248-1.7.248s-1.813-.482-1.7-1.176c.087-.534.693-.807,1.324-.8a11.6,11.6,0,0,1,2.559.54c1.172.282,1.629-.4,1.131-1.636-.165-.412-.436-.984-.744-1.595m-4-.239c-.384-.69.805-1.506,1.687-2.021a12.731,12.731,0,0,1,1.243,1.965c-.63.373-2.445.929-2.93.056" transform="translate(-430.019 -4.007)" fill="#1a1311"/>
      <path id="Path_12836" data-name="Path 12836" d="M799.467,3.12h4.847a.286.286,0,0,0,.213-.483l-.865-.9a.307.307,0,0,0-.452.011l-.662.759h-2.794a9.245,9.245,0,0,1-1.385-.154l.314.923a2.667,2.667,0,0,1,.785-.154" transform="translate(-656.139 -1.348)" fill="#1a1311"/>
      <path id="Path_12837" data-name="Path 12837" d="M807.232,12.981a.224.224,0,0,0,.113-.373l-.679-.707a.241.241,0,0,0-.354.008l-.4.463h-2.135c-.248-.083-.982-.329-1.059-.354-.092-.03-.263-.038-.2.184a5,5,0,0,1,.17,1.337,7.61,7.61,0,0,1-.1,1.1c-.023.182-.057.394.09.507.285.221,1.021-.044,1.044-.342,0-.037.005-.071.007-.1h2.1a.485.485,0,0,0,.1.437c.289.239,1.058-.074,1.058-.485,0-.335-.064-.879-.064-1.328V13.3c0-.212.132-.278.313-.319m-3.624-.011h2.368v1.123h-2.368Z" transform="translate(-659.536 -9.721)" fill="#1a1311"/>
      <path id="Path_12838" data-name="Path 12838" d="M770.435,1.917a.28.28,0,0,0-.412.009l-.565.648h-.327V1.2a.287.287,0,0,1,.036-.141A.56.56,0,0,1,769.4.877c.089-.053.2-.1.224-.2A.2.2,0,0,0,769.63.6c-.022-.167-.235-.209-.4-.259L768.17.014c-.116-.036-.279-.016-.219.214a8.829,8.829,0,0,1,.215,2.112c0,.078,0,.156,0,.234h-.526a9.236,9.236,0,0,1-1.385-.154l.314.923a2.663,2.663,0,0,1,.785-.154h2.038c-.377,1.354-2.1,3.7-3.682,5.318-.143.147-.151.248-.1.3s.2.048.322-.049a21.218,21.218,0,0,0,2.24-2.068V8.148c0,.213,0,.425-.01.639-.028.531-.108,1.332-.143,1.794-.016.213-.061.459.1.591.311.257,1.138-.08,1.138-.522,0-.544-.119-1.19-.119-2.289V5.666a3.642,3.642,0,0,1,.684,1.351.667.667,0,0,0,1.317-.094c-.023-.731-.88-1.388-1.828-1.535a14.926,14.926,0,0,0,1.342-1.942.748.748,0,0,1,.467-.278.26.26,0,0,0,.112-.429Z" transform="translate(-629.193 0)" fill="#1a1311"/>
      <path id="Path_12839" data-name="Path 12839" d="M805.508,31.02l-.736-.766a.261.261,0,0,0-.383.009l-.492.564h-3.111l-1.274-.4c-.113-.035-.271-.015-.213.21a8.7,8.7,0,0,1,.217,2.072c0,.063,0,.519-.009.684-.027.521-.1,1.473-.139,1.927-.016.209-.06.45.095.58.3.252,1.105-.065,1.105-.391a1.583,1.583,0,0,0-.026-.334h3.3c0,.031-.009.067-.012.111-.016.213-.061.459.1.592.311.257,1.139-.08,1.139-.522,0-.545-.119-1.191-.119-2.292V31.84a.451.451,0,0,1,.416-.413.243.243,0,0,0,.141-.408m-2.9,2.208h1.366V34.57H802.6Zm-.88-1.8v1.2h-1.27c0-.508,0-.961,0-1.2Zm-1.271,3.14c0-.353,0-.845,0-1.343h1.27V34.57Zm3.516-1.941H802.6v-1.2h1.366Z" transform="translate(-656.894 -24.799)" fill="#1a1311"/>
      <path id="Path_12840" data-name="Path 12840" d="M243.51,3.042h4.243a.3.3,0,0,0,.22-.5l-.893-.93a.317.317,0,0,0-.466.011l-.683.782h-2.7c0-.438.009-.93.009-1.183a.3.3,0,0,1,.036-.144A.578.578,0,0,1,243.513.9c.091-.054.2-.1.229-.2a.211.211,0,0,0,0-.081c-.022-.17-.24-.213-.407-.265L242.257.015c-.118-.037-.285-.016-.223.218a11.686,11.686,0,0,1,.216,2.174h-3.208a9.521,9.521,0,0,1-1.428-.159l.324.952a2.747,2.747,0,0,1,.809-.159h2.932a19.768,19.768,0,0,1-4.829,7.227c-.132.131-.139.257-.075.31s.232.052.454-.118a18.4,18.4,0,0,0,5.043-5.727c0,1.562-.013,3.467-.027,3.838-.02.548-.11,1.524-.146,2-.017.217-.063.469.1.6.317.262,1.161-.082,1.161-.533,0-.555-.115-1.194-.121-2.349,0-.347-.007-2.823-.009-4.476a19.187,19.187,0,0,0,3.721,5.975c.636.635,2.243.081,2.922-.184-2.691-.867-4.743-3.652-6.363-6.563" transform="translate(-194.561 -0.001)" fill="#1a1311"/>
      <path id="Path_12841" data-name="Path 12841" d="M606.386,11.351a2.769,2.769,0,0,0-2.651.042c.723-.858,1.508-1.739,2.1-2.342,1.108-1.125-.076-1.9-.766-1.5-.29.166-.864.555-1.333.769a1.376,1.376,0,0,1-1.135.053c-.2-.119-.613-.577-1-.3-.343.245-.241.77.283,1.114.764.5,1.731-.037,2.416-.558s.781-.1.593.274c-.815,1.606-2.615,3.031-3.937,4.255-1.031.954.407,1.512.936.624a12.146,12.146,0,0,1,.771-1.076l-.038.055c1.352-1.7,2.71-1.054,3.014-.878a2.073,2.073,0,0,1-.137,3.379c-.06.038-.12.074-.18.108a2.068,2.068,0,0,0-1.674-1.422,1.216,1.216,0,0,0-1.388,1.084c-.123,1.719,2.527,2.077,4.027.967a2.82,2.82,0,0,0,.1-4.648m-3.227,4a.419.419,0,0,1,.248-.77c.439,0,.82.421,1.1,1.087a1.622,1.622,0,0,1-1.349-.317" transform="translate(-493.602 -6.12)" fill="#1a1311"/>
      <rect id="Rectangle_6582" data-name="Rectangle 6582" width="111.434" height="0.821" transform="translate(40.062 17.288)" fill="#008c4f"/>
    </g>
  </g>
</svg>
