<svg id="Group_75414" data-name="Group 75414" xmlns="http://www.w3.org/2000/svg" xmlns:xlink="http://www.w3.org/1999/xlink" width="220" height="19.155" viewBox="0 0 220 19.155">
  <defs>
    <clipPath id="clip-path">
      <rect id="Rectangle_6575" data-name="Rectangle 6575" width="220" height="19.155" fill="none"/>
    </clipPath>
  </defs>
  <g id="Group_75413" data-name="Group 75413" transform="translate(0 0)" clip-path="url(#clip-path)">
    <path id="Path_12764" data-name="Path 12764" d="M214.861,5.3a11.806,11.806,0,0,1-1.39,2.526l-2.106-1.163c.252-.3.358-.44.59-.761h-2.569V7.545a17.364,17.364,0,0,0,2.885,3.39l-1.327,1.8a10.248,10.248,0,0,1-1.517-2.246h-.042v8.564h-2V9.791h-.042a17.858,17.858,0,0,1-2.443,5.055l-.969-2.528A19.01,19.01,0,0,0,207.09,5.9h-2.738V3.915h3.033V.3h2V3.915h2.569V5.9H212A15.944,15.944,0,0,0,213.912.966l2.191.3c-.127.563-.3,1.184-.57,2.066h1.621V.3h2.086V3.332h4.442V5.3h-4.442V8.106H224.1v1.986h-4.19a15.335,15.335,0,0,0,4.528,5.255l-1.094,2.207a15.3,15.3,0,0,1-4.065-5.175h-.042v6.679h-2.086V12.439h-.042a17,17,0,0,1-4.717,4.974l-1.37-1.825a16.6,16.6,0,0,0,5.539-5.5h-4.612V8.106h5.2V5.3Z" transform="translate(-69.27 -0.103)" fill="#004b9e"/>
    <path id="Path_12765" data-name="Path 12765" d="M255.255,3.37h2.211v2h-6.145a28.8,28.8,0,0,0,1.6,8.705c.247.562,1.148,2.367,1.865,2.367.737,0,1.065-2.307,1.147-3.008l1.884,1.043c-.286,1.544-.839,4.493-2.683,4.493-1.988,0-3.339-2.307-3.831-3.229-1.782-3.39-1.925-7.08-2.048-10.37H238.376v-2h10.8c-.042-1.064-.1-2.868-.124-3.19h2.172c0,1.024,0,1.766.02,3.19h3.708V3.33A19.867,19.867,0,0,0,251.9,1.564L253.124,0a20.806,20.806,0,0,1,3.3,1.906ZM238.376,16.227c.512-.04.738-.081,1.024-.1.492-.079,2.787-.361,3.319-.44V9.868h-3.995V7.884H248.6V9.868h-3.769v5.556c2.355-.34,3.6-.582,4.4-.742v1.885c-3.317.7-8.049,1.4-10.508,1.7Z" transform="translate(-80.97 0)" fill="#004b9e"/>
    <path id="Path_12766" data-name="Path 12766" d="M287.476,19.186a14.762,14.762,0,0,0-.84-1.364c-10.734.7-11.429.761-14.544.761l-.307-2.085c.431,0,1.966-.02,2.95-.04A30.354,30.354,0,0,0,276.7,11.8h-5.265V9.859h18.457V11.8H279.221c-1,2.227-1.556,3.47-2.192,4.613,4.22-.1,5.2-.12,8.357-.3a23.788,23.788,0,0,0-2.416-2.868l1.741-1.043a29.114,29.114,0,0,1,4.731,5.777ZM275.268,6.469a22.017,22.017,0,0,1-3.38,1.725l-1.209-1.925c3.3-1.123,7.129-3.59,8.871-6.178H281.9c1.515,2.326,4.855,4.573,8.85,6.1l-1.311,2a35.215,35.215,0,0,1-3.3-1.784V7.552H275.268ZM285,5.648V5.607a22.116,22.116,0,0,1-4.26-3.77,19.847,19.847,0,0,1-4.22,3.77v.041Z" transform="translate(-91.942 -0.031)" fill="#004b9e"/>
    <path id="Path_12767" data-name="Path 12767" d="M309.127,19.087h-2.091V11.345a14.12,14.12,0,0,1-2.478,1.865l-.922-2.046a12.955,12.955,0,0,0,5.572-5.856h-5.285V3.342h3.113V.213h2.091V3.342h2.417V5.308a17.941,17.941,0,0,1-2.069,3.39,14.166,14.166,0,0,0,2.868,2.466l-1,1.905a16.826,16.826,0,0,1-2.211-2.106Zm7-18.874h2.151V5.889h4.383V8.035h-4.383v8.244h4.854v2.146H310.97V16.279h5.162V8.035h-4.28V5.889h4.28Z" transform="translate(-103.137 -0.072)" fill="#004b9e"/>
    <path id="Path_12768" data-name="Path 12768" d="M53.686,2.452H37.441V5.707H53.686c1.86,0,2.046,2.108,2.046,2.6A2.3,2.3,0,0,1,53.5,10.357H47.424V7.443H44.014v6.325a2.568,2.568,0,0,1-2.356,2.542H37.5v3.317h4.34c5.519,0,5.519-4.991,5.519-6.045h5.456c4.712,0,6.387-2.853,6.387-5.456a5.407,5.407,0,0,0-5.519-5.674" transform="translate(-12.718 -0.833)" fill="#004b9e"/>
    <path id="Path_12769" data-name="Path 12769" d="M71.6,2.452v9.455c0,2.17-.31,4.4-2.169,4.4H66.644v3.317H69.62a5.142,5.142,0,0,0,5.271-4.805V2.452Z" transform="translate(-22.637 -0.833)" fill="#004b9e"/>
    <path id="Path_12770" data-name="Path 12770" d="M82.513,2.452V15.07c0,2.851,2.975,4.557,5.269,4.557,4.093,0,6.325-2.883,6.325-5.178V10.357H91.069v3.287a2.553,2.553,0,0,1-2.728,2.665,2.388,2.388,0,0,1-2.666-2.48V2.452Z" transform="translate(-28.027 -0.833)" fill="#004b9e"/>
    <path id="Path_12771" data-name="Path 12771" d="M116.161,8.233l4.373-2.773h4.029V2.452h-5.332L106.521,10.42h-2.976v3.1h4.278l4.707-2.985" transform="translate(-35.171 -0.833)" fill="#004b9e"/>
    <path id="Path_12772" data-name="Path 12772" d="M120.943,11.043v11.5h-3.782V13.586" transform="translate(-39.796 -3.751)" fill="#004b9e"/>
    <rect id="Rectangle_6573" data-name="Rectangle 6573" width="9.548" height="3.255" transform="translate(91.192 1.619)" fill="#004b9e"/>
    <path id="Path_12773" data-name="Path 12773" d="M149.044,17.923h-10.85V21.3h10.6c6.7,0,9.424-4.805,9.424-8.649V7.382h-3.534V12.9c0,3.658-3.286,5.022-5.642,5.022" transform="translate(-46.941 -2.507)" fill="#004b9e"/>
    <path id="Path_12774" data-name="Path 12774" d="M186.027,2.452h-15V5.707H185.16c2.108,0,2.6,1.364,2.6,2.976v5.271c0,1.984-1.8,2.355-3.161,2.355h-13.64v3.317h14.693c3.349,0,5.456-2.574,5.456-6.045V7.939c0-4.464-3.224-5.487-5.083-5.487" transform="translate(-58.071 -0.833)" fill="#004b9e"/>
    <rect id="Rectangle_6574" data-name="Rectangle 6574" width="20.381" height="17.175" transform="translate(0 1.619)" fill="#004b9e"/>
    <path id="Path_12775" data-name="Path 12775" d="M5.273,24.235v-.658a.9.9,0,0,0-.291-.636,2.182,2.182,0,0,0-1.459-.557c-.683,0-1.672.425-1.672,1.193v1.541a.3.3,0,1,0,.6,0v-.477H4.671v.477a.3.3,0,1,0,.6,0v-.675a.3.3,0,0,0,.02-.1.308.308,0,0,0-.02-.1m-2.82-.2v-.46a.343.343,0,0,1,.121-.234,1.483,1.483,0,0,1,.948-.356,1.62,1.62,0,0,1,1.033.38.343.343,0,0,1,.115.21v.46Z" transform="translate(-0.629 -7.603)" fill="#fff"/>
    <path id="Path_12776" data-name="Path 12776" d="M10.052,24.816H8.533V22.684a.3.3,0,0,0-.6,0v2.433a.3.3,0,0,0,.3.3h1.821a.3.3,0,1,0,0-.6" transform="translate(-2.693 -7.603)" fill="#fff"/>
    <path id="Path_12777" data-name="Path 12777" d="M12.767,22.384a.3.3,0,0,0-.3.3v2.433a.3.3,0,1,0,.6,0V22.685a.3.3,0,0,0-.3-.3" transform="translate(-4.234 -7.603)" fill="#fff"/>
    <path id="Path_12778" data-name="Path 12778" d="M17.116,22.384a.3.3,0,0,0-.3.3L16.8,24.406l-1.98-1.937a.3.3,0,0,0-.512.216v2.433a.3.3,0,1,0,.6,0V23.4l1.974,1.931a.3.3,0,0,0,.512-.213l.02-2.433a.3.3,0,0,0-.3-.3" transform="translate(-4.859 -7.603)" fill="#fff"/>
    <path id="Path_12779" data-name="Path 12779" d="M22.412,24.342a.3.3,0,0,0-.3.3.542.542,0,0,1-.011.131,3.379,3.379,0,0,1-.753.041c-.43,0-.687-.046-.777-.137s-.092-.374-.09-.728v-.2c0-.468.067-.632.123-.687.078-.079.308-.078.6-.075h.131c.585,0,.714.054.743.079a.357.357,0,0,1,.013.131.3.3,0,0,0,.6,0,.747.747,0,0,0-.19-.557c-.215-.215-.577-.256-1.17-.256h-.127a1.349,1.349,0,0,0-1.029.251,1.5,1.5,0,0,0-.3,1.115v.2a1.526,1.526,0,0,0,.265,1.158,1.589,1.589,0,0,0,1.193.314c.657,0,.98,0,1.2-.216a.759.759,0,0,0,.183-.559.3.3,0,0,0-.3-.3" transform="translate(-6.752 -7.603)" fill="#fff"/>
    <path id="Path_12780" data-name="Path 12780" d="M27.782,22.685c-.257-.256-.645-.3-1.367-.3-1.263,0-1.672.118-1.672,1.517a1.632,1.632,0,0,0,.323,1.222,1.74,1.74,0,0,0,1.28.3,1.951,1.951,0,0,0,1.418-.334,1.276,1.276,0,0,0,.3-.955c0-.723,0-1.158-.286-1.444m-1.436,2.131c-.442,0-.742-.009-.854-.121a1.3,1.3,0,0,1-.147-.8,1.534,1.534,0,0,1,.125-.8c.106-.106.442-.114.944-.114a1.925,1.925,0,0,1,.941.125,2.181,2.181,0,0,1,.108,1.018c0,.592-.076.687-1.118.687" transform="translate(-8.405 -7.603)" fill="#fff"/>
    <path id="Path_12781" data-name="Path 12781" d="M19.975,11.666v3.2c-4.23,0-8.15-7.007-11.768-7.007H4.719v4H9.556V9a11.346,11.346,0,0,1,3.008,2.057v4.3H1.673V4.468H7.152c5.627,0,9.849,7.236,12.5,7.236" transform="translate(-0.568 -1.518)" fill="#ffd900"/>
  </g>
</svg>
