<svg xmlns="http://www.w3.org/2000/svg" xmlns:xlink="http://www.w3.org/1999/xlink" width="220" height="40.339" viewBox="0 0 220 40.339">
  <defs>
    <clipPath id="clip-path">
      <rect id="Rectangle_6576" data-name="Rectangle 6576" width="220" height="40.339" fill="none"/>
    </clipPath>
  </defs>
  <g id="Group_75416" data-name="Group 75416" transform="translate(0 0)">
    <g id="Group_75415" data-name="Group 75415" transform="translate(0 0)" clip-path="url(#clip-path)">
      <path id="Path_12782" data-name="Path 12782" d="M2.954,38.232v3.815c0,.868-.7,1.239-1.44,1.239C.062,43.287,0,42.681,0,41.551H1.06c0,.4-.09.992.454.992a.42.42,0,0,0,.4-.427V38.232Z" transform="translate(0 -2.947)" fill="#970045"/>
      <path id="Path_12783" data-name="Path 12783" d="M4.065,43.2V38.232H6.648V39H5.1V40.27H6.579v.764H5.1V43.2Z" transform="translate(-0.313 -2.947)" fill="#970045"/>
      <path id="Path_12784" data-name="Path 12784" d="M8.416,43.2H7.377V38.232H9.3c.71,0,1.164.455,1.164,1.3a1.072,1.072,0,0,1-.923,1.219v.013a.885.885,0,0,1,.9.978,6.788,6.788,0,0,0,.117,1.46H9.539a2.282,2.282,0,0,1-.11-.964c0-.593.055-1.1-.744-1.1H8.416Zm0-2.823h.461c.413,0,.531-.413.531-.73,0-.475-.2-.654-.531-.654H8.416Z" transform="translate(-0.569 -2.947)" fill="#970045"/>
      <path id="Path_12785" data-name="Path 12785" d="M15.471,39.753c.006-.461-.069-.868-.62-.868-.647,0-.647.875-.647,1.838,0,1.557.151,1.832.744,1.832a1.648,1.648,0,0,0,.516-.1v-1.1H14.9v-.764h1.6v2.521a9.607,9.607,0,0,1-1.4.164c-1.749,0-1.949-.723-1.949-2.609,0-1.253.062-2.528,1.763-2.528A1.421,1.421,0,0,1,16.5,39.753Z" transform="translate(-1.013 -2.94)" fill="#970045"/>
      <path id="Path_12786" data-name="Path 12786" d="M18.776,43.2H17.737V38.232h1.921c.71,0,1.164.455,1.164,1.3a1.072,1.072,0,0,1-.923,1.219v.013a.885.885,0,0,1,.9.978,6.788,6.788,0,0,0,.117,1.46H19.9a2.282,2.282,0,0,1-.11-.964c0-.593.055-1.1-.744-1.1h-.269Zm0-2.823h.461c.413,0,.531-.413.531-.73,0-.475-.2-.654-.531-.654h-.461Z" transform="translate(-1.367 -2.947)" fill="#970045"/>
      <path id="Path_12787" data-name="Path 12787" d="M21.854,40.711c0-1.315,0-2.569,1.715-2.569s1.715,1.253,1.715,2.569,0,2.569-1.715,2.569-1.715-1.266-1.715-2.569m2.376,0c0-1.274-.076-1.825-.661-1.825s-.662.551-.662,1.825.076,1.826.662,1.826.661-.552.661-1.826" transform="translate(-1.684 -2.94)" fill="#970045"/>
      <path id="Path_12788" data-name="Path 12788" d="M29.822,38.232v3.526a1.479,1.479,0,0,1-1.687,1.529c-1.144,0-1.694-.593-1.694-1.529V38.232h1.04v3.457c0,.613.262.854.641.854.454,0,.661-.3.661-.854V38.232Z" transform="translate(-2.038 -2.947)" fill="#970045"/>
      <path id="Path_12789" data-name="Path 12789" d="M31.028,38.232H32.9c.951,0,1.323.579,1.323,1.488a1.281,1.281,0,0,1-1.384,1.459h-.772V43.2H31.028Zm1.039,2.183h.579c.31,0,.523-.338.523-.668,0-.406-.11-.75-.579-.75h-.523Z" transform="translate(-2.391 -2.947)" fill="#970045"/>
      <path id="Path_12790" data-name="Path 12790" d="M2.954,38.232v3.815c0,.868-.7,1.239-1.44,1.239C.062,43.287,0,42.681,0,41.551H1.06c0,.4-.09.992.454.992a.42.42,0,0,0,.4-.427V38.232Z" transform="translate(0 -2.947)" fill="#970045"/>
      <path id="Path_12791" data-name="Path 12791" d="M4.065,43.2V38.232H6.648V39H5.1V40.27H6.579v.764H5.1V43.2Z" transform="translate(-0.313 -2.947)" fill="#970045"/>
      <path id="Path_12792" data-name="Path 12792" d="M8.416,43.2H7.377V38.232H9.3c.71,0,1.164.455,1.164,1.3a1.072,1.072,0,0,1-.923,1.219v.013a.885.885,0,0,1,.9.978,6.788,6.788,0,0,0,.117,1.46H9.539a2.282,2.282,0,0,1-.11-.964c0-.593.055-1.1-.744-1.1H8.416Zm0-2.823h.461c.413,0,.531-.413.531-.73,0-.475-.2-.654-.531-.654H8.416Z" transform="translate(-0.569 -2.947)" fill="#970045"/>
      <path id="Path_12793" data-name="Path 12793" d="M15.471,39.753c.006-.461-.069-.868-.62-.868-.647,0-.647.875-.647,1.838,0,1.557.151,1.832.744,1.832a1.648,1.648,0,0,0,.516-.1v-1.1H14.9v-.764h1.6v2.521a9.607,9.607,0,0,1-1.4.164c-1.749,0-1.949-.723-1.949-2.609,0-1.253.062-2.528,1.763-2.528A1.421,1.421,0,0,1,16.5,39.753Z" transform="translate(-1.013 -2.94)" fill="#970045"/>
      <path id="Path_12794" data-name="Path 12794" d="M18.776,43.2H17.737V38.232h1.921c.71,0,1.164.455,1.164,1.3a1.072,1.072,0,0,1-.923,1.219v.013a.885.885,0,0,1,.9.978,6.788,6.788,0,0,0,.117,1.46H19.9a2.282,2.282,0,0,1-.11-.964c0-.593.055-1.1-.744-1.1h-.269Zm0-2.823h.461c.413,0,.531-.413.531-.73,0-.475-.2-.654-.531-.654h-.461Z" transform="translate(-1.367 -2.947)" fill="#970045"/>
      <path id="Path_12795" data-name="Path 12795" d="M21.854,40.711c0-1.315,0-2.569,1.715-2.569s1.715,1.253,1.715,2.569,0,2.569-1.715,2.569-1.715-1.266-1.715-2.569m2.376,0c0-1.274-.076-1.825-.661-1.825s-.662.551-.662,1.825.076,1.826.662,1.826.661-.552.661-1.826" transform="translate(-1.684 -2.94)" fill="#970045"/>
      <path id="Path_12796" data-name="Path 12796" d="M29.822,38.232v3.526a1.479,1.479,0,0,1-1.687,1.529c-1.144,0-1.694-.593-1.694-1.529V38.232h1.04v3.457c0,.613.262.854.641.854.454,0,.661-.3.661-.854V38.232Z" transform="translate(-2.038 -2.947)" fill="#970045"/>
      <path id="Path_12797" data-name="Path 12797" d="M31.028,38.232H32.9c.951,0,1.323.579,1.323,1.488a1.281,1.281,0,0,1-1.384,1.459h-.772V43.2H31.028Zm1.039,2.183h.579c.31,0,.523-.338.523-.668,0-.406-.11-.75-.579-.75h-.523Z" transform="translate(-2.391 -2.947)" fill="#970045"/>
      <path id="Path_12798" data-name="Path 12798" d="M30.274,22.693A15.854,15.854,0,1,0,1.717,22.8C6.677,21.49,9.039,17.233,9.281,10.2V9.117h2.266v1.095C11.43,18.2,8.54,23.245,2.9,24.822a15.852,15.852,0,0,0,26.257-.17,11.594,11.594,0,0,1-7.241-7.913,9.639,9.639,0,0,1-.341-1.513l0-.006s.088-.03.17-.061a2.3,2.3,0,0,0,1.082-2.18,1.638,1.638,0,0,0-1.5-1.836h-.416V22.33H18.829l0-13.217,2.475,0a3.632,3.632,0,0,1,3.441,3.864,4.935,4.935,0,0,1-.881,2.813,10.257,10.257,0,0,0,6.413,6.9M17.385,14.6v2.056H14.476v5.728H12.462V9.117h5.546v2.014c0,.01-3.528.011-3.533.008V14.6Z" transform="translate(-0.009 0)" fill="#970045"/>
      <path id="Path_12799" data-name="Path 12799" d="M166.809,17.52V16.485a.193.193,0,0,0-.193-.192H150.7V15h14.58a.19.19,0,0,0,.189-.193V10.449a.192.192,0,0,0-.189-.192H149.317a.191.191,0,0,0-.192.192v7.262a52.358,52.358,0,0,1-.574,6.135l-.019.152a11.36,11.36,0,0,1-1.505,4.369.19.19,0,0,0,.04.246l1.084.933a.2.2,0,0,0,.164.042.191.191,0,0,0,.131-.1,16.648,16.648,0,0,0,1.654-5.113,43.245,43.245,0,0,0,.6-6.658h4.473a16.994,16.994,0,0,1-1.661,2.73l-.642.01-1.515.009a.218.218,0,0,0-.149.063.2.2,0,0,0-.06.135l.087,1.131a.19.19,0,0,0,.195.177l6.2-.144v1.794h-6.248a.192.192,0,0,0-.193.192v1.079a.191.191,0,0,0,.193.191h6.248v2.54h-7.4a.192.192,0,0,0-.193.191v1.081a.192.192,0,0,0,.193.191h16.386a.192.192,0,0,0,.193-.191V27.811a.192.192,0,0,0-.193-.191H159.2V25.08h6.372a.189.189,0,0,0,.191-.191V23.81a.19.19,0,0,0-.191-.192H159.2V21.766l4.706-.278c.1.129.644.858.644.858l.254.353a.188.188,0,0,0,.254.046l1.022-.637a.176.176,0,0,0,.084-.126.091.091,0,0,0,.006-.035.188.188,0,0,0-.036-.113,26.248,26.248,0,0,0-3.643-4.1.157.157,0,0,0-.068-.026h4.191a.193.193,0,0,0,.193-.193M150.7,11.657h13.2v1.966H150.7Zm12.1,8.491c-1.878.136-4.605.2-7.058.257l-.4.008a22.024,22.024,0,0,0,1.551-2.7h5.4c-.016.006-.03,0-.043.015l-.916.677a.189.189,0,0,0-.078.15v.006a.19.19,0,0,0,.066.147,12.235,12.235,0,0,1,1.469,1.442" transform="translate(-11.329 -0.791)" fill="#1a1311"/>
      <path id="Path_12800" data-name="Path 12800" d="M108.211,22.407a.19.19,0,0,0,.15-.068l.764-.906a.2.2,0,0,0,.044-.124.18.18,0,0,0-.047-.126,19.046,19.046,0,0,1-2.9-4.821s.006-.544.012-.789h2.874a.189.189,0,0,0,.188-.19V14.351a.189.189,0,0,0-.188-.19h-2.872V10.1a.189.189,0,0,0-.188-.191h-1.106a.191.191,0,0,0-.19.191v4.063h-3.489a.19.19,0,0,0-.188.19v1.032a.189.189,0,0,0,.188.19h3.373a22.445,22.445,0,0,1-3.9,7.76.185.185,0,0,0-.045.123.19.19,0,0,0,.033.107l.745,1.094a.186.186,0,0,0,.146.083.2.2,0,0,0,.155-.064,18.382,18.382,0,0,0,2.981-5.317v9.962a.189.189,0,0,0,.19.188h1.106a.187.187,0,0,0,.188-.188V19.4a17.7,17.7,0,0,0,1.83,2.937.182.182,0,0,0,.144.073m8.655-1.538-1,.5a.2.2,0,0,0-.1.117.207.207,0,0,0-.006.053.2.2,0,0,0,.026.1,33.826,33.826,0,0,1,2.418,4.679c-1.933.258-3.677.393-6.574.6a57.451,57.451,0,0,0,2.995-9.2.263.263,0,0,0,.006-.045.192.192,0,0,0-.147-.186l-1.148-.269a.2.2,0,0,0-.147.027.184.184,0,0,0-.083.121,43.928,43.928,0,0,1-3.173,9.683c-.15.011-.483.031-.483.031l-1.215.064a.2.2,0,0,0-.19.2v.024l.193,1.2a.191.191,0,0,0,.2.158l.112-.007c2.359-.188,7.973-.661,10.183-1.084l.582,1.661a.192.192,0,0,0,.108.116.2.2,0,0,0,.159,0l1.148-.577a.19.19,0,0,0,.1-.223,37.652,37.652,0,0,0-3.722-7.673.193.193,0,0,0-.242-.063M108.2,18.9a.186.186,0,0,0,.064.131l.914.827a.19.19,0,0,0,.274-.022,19.515,19.515,0,0,0,3.822-9.293.191.191,0,0,0-.151-.221l-1.083-.207a.19.19,0,0,0-.145.03.184.184,0,0,0-.078.124c-.657,3.661-1.954,6.758-3.565,8.493a.2.2,0,0,0-.052.138m12.868-.116c-.744-.8-2.717-2.917-3.608-8.448a.191.191,0,0,0-.215-.159l-1.1.165a.186.186,0,0,0-.126.074.2.2,0,0,0-.036.143c.3,1.9,1.267,6.632,3.875,9.412a.187.187,0,0,0,.136.06.2.2,0,0,0,.138-.055l.933-.928a.19.19,0,0,0,.006-.264" transform="translate(-7.76 -0.764)" fill="#1a1311"/>
      <path id="Path_12801" data-name="Path 12801" d="M236.51,16.147h-7.692v-2.3a.193.193,0,0,0-.193-.192h-1.19a.193.193,0,0,0-.193.192v6.78H221.59a.192.192,0,0,0-.193.191v8.5a.194.194,0,0,0,.193.191h1.169a.191.191,0,0,0,.191-.191V28.43h10.9v.883a.192.192,0,0,0,.191.191h1.146a.192.192,0,0,0,.193-.191v-8.5a.191.191,0,0,0-.193-.191h-6.372V17.586h7.692a.191.191,0,0,0,.189-.193V16.339a.19.19,0,0,0-.189-.192m-2.7,10.845H222.949V22.081H233.81Zm2.7-15.343h-8.672V9.6a.192.192,0,0,0-.192-.194h-1.211a.193.193,0,0,0-.191.194v2.044h-7.373a.2.2,0,0,0-.193.194v7.55c0,4.682-.459,6.722-1.958,8.728a.185.185,0,0,0-.038.116.192.192,0,0,0,.07.149l1.043.84a.2.2,0,0,0,.158.027.229.229,0,0,0,.138-.1c.755-1.188,2.161-3.4,2.161-9.65V13.152H236.51a.189.189,0,0,0,.189-.191V11.843a.191.191,0,0,0-.189-.194" transform="translate(-16.699 -0.726)" fill="#1a1311"/>
      <path id="Path_12802" data-name="Path 12802" d="M190.2,10.256H170.6a.193.193,0,0,0-.189.192v1.121a.193.193,0,0,0,.189.193h9.011a26.359,26.359,0,0,1-.658,3.13h-6.224a.194.194,0,0,0-.195.194v14.23a.194.194,0,0,0,.195.192H173.9a.193.193,0,0,0,.191-.192v-.844h12.529v.844a.194.194,0,0,0,.193.192h1.2a.192.192,0,0,0,.192-.192V15.086a.192.192,0,0,0-.192-.194h-7.54c.09-.378.437-1.849.437-1.849s.242-1.048.294-1.281h9a.192.192,0,0,0,.192-.193V10.448a.192.192,0,0,0-.192-.192m-3.578,16.709H174.094V22.3h12.529Zm0-6.123H174.094V16.354h12.529Z" transform="translate(-13.133 -0.791)" fill="#1a1311"/>
      <path id="Path_12803" data-name="Path 12803" d="M74.377,28a.2.2,0,0,0-.1-.13,15.188,15.188,0,0,1-8.98-11.239h8.791a.19.19,0,0,0,.191-.192V15.29a.191.191,0,0,0-.191-.192H64.941V9.911a.192.192,0,0,0-.193-.191H63.46a.192.192,0,0,0-.192.191V15.1H54.421a.193.193,0,0,0-.192.192v1.146a.192.192,0,0,0,.192.192h8.745a13.7,13.7,0,0,1-8.819,11.3.2.2,0,0,0-.108.116.221.221,0,0,0-.01.06.207.207,0,0,0,.026.1l.634,1.086a.193.193,0,0,0,.249.075c5.2-2.5,7.981-5.747,9.223-10.748a16.418,16.418,0,0,0,8.918,10.64.192.192,0,0,0,.237-.053l.824-1.042a.19.19,0,0,0,.042-.118A.186.186,0,0,0,74.377,28" transform="translate(-4.179 -0.75)" fill="#1a1311"/>
      <path id="Path_12804" data-name="Path 12804" d="M98.607,27.841H94.214c-.449,0-.579-.023-.579-.577V13.369a.184.184,0,0,0-.186-.185H87V9.654a.185.185,0,0,0-.186-.185h-1.21a.185.185,0,0,0-.185.185v3.531H78.659a.184.184,0,0,0-.186.185V14.5a.184.184,0,0,0,.186.185h6.708A30.046,30.046,0,0,1,84.8,19.5a24.22,24.22,0,0,0-3.879-2.326.182.182,0,0,0-.22.049l-.807.961a.186.186,0,0,0-.043.118c0,.013,0,.026,0,.038a.2.2,0,0,0,.1.128,35.672,35.672,0,0,1,4.377,2.675c-1.024,2.888-2.978,5.036-6.339,6.939a.174.174,0,0,0-.09.119.127.127,0,0,0-.006.041.184.184,0,0,0,.033.107l.766,1.092a.182.182,0,0,0,.24.056c4.416-2.5,5.954-5.187,6.766-7.31A19.006,19.006,0,0,1,88.97,25.3a.193.193,0,0,0,.142.069.183.183,0,0,0,.142-.067l.85-1a.17.17,0,0,0,.044-.118.18.18,0,0,0-.046-.122,29.224,29.224,0,0,0-3.867-3.51,28.258,28.258,0,0,0,.716-5.862h5.1V27.525c0,1.36.464,1.843,1.778,1.843h.881l3.894-.01a.187.187,0,0,0,.186-.186V28.026a.187.187,0,0,0-.186-.186" transform="translate(-6.004 -0.73)" fill="#1a1311"/>
      <path id="Path_12805" data-name="Path 12805" d="M143.941,27.943a16.94,16.94,0,0,1-4.528-3.34,17.544,17.544,0,0,0,3.6-9,.126.126,0,0,0,0-.027.2.2,0,0,0-.047-.126.2.2,0,0,0-.145-.065h-9.177V11.745h10a.194.194,0,0,0,.193-.193V10.433a.193.193,0,0,0-.193-.192H132.313a.192.192,0,0,0-.191.192v8.722a16.286,16.286,0,0,1-.737,5.292l-.062-.61a.193.193,0,0,0-.09-.14.2.2,0,0,0-.171-.018l-2.367.795v-7.6h2.545a.19.19,0,0,0,.192-.19V15.608a.191.191,0,0,0-.192-.191h-2.545V10.246a.191.191,0,0,0-.193-.191h-1.136a.191.191,0,0,0-.193.191v5.171h-2.819a.191.191,0,0,0-.191.191v1.078a.191.191,0,0,0,.191.19h2.819v8.017c-.883.248-1.721.435-3.02.671a.187.187,0,0,0-.157.188v.026l.169,1.27a.207.207,0,0,0,.1.126.252.252,0,0,0,.175.026,41.262,41.262,0,0,0,6.656-2,8.668,8.668,0,0,1-2.383,3.157.189.189,0,0,0,0,.285l.95.861a.189.189,0,0,0,.258,0c2.471-2.364,3.725-5.815,3.725-10.259V16.827h7.576a16.183,16.183,0,0,1-2.757,6.6,15.124,15.124,0,0,1-2.592-5.9.2.2,0,0,0-.1-.126.2.2,0,0,0-.154-.014l-1.031.346a.193.193,0,0,0-.132.181.2.2,0,0,0,.006.042,16.654,16.654,0,0,0,2.969,6.669,15.436,15.436,0,0,1-4.884,3.365.2.2,0,0,0-.106.12.218.218,0,0,0-.006.054.189.189,0,0,0,.03.1l.63,1.012c.052.084.215.087.3.045a15.909,15.909,0,0,0,4.994-3.538,18.014,18.014,0,0,0,4.648,3.558.194.194,0,0,0,.255-.058l.714-1.058a.19.19,0,0,0,.031-.105.249.249,0,0,0,0-.047.191.191,0,0,0-.1-.125" transform="translate(-9.556 -0.775)" fill="#1a1311"/>
      <path id="Path_12806" data-name="Path 12806" d="M205.543,16.138h5.378c1.1,0,1.659-.2,2.178-2.01.053-.188-.158-.329-.158-.329l-.918-.585c-.258-.164-.275.048-.275.048v0c-.314,1.485-.634,1.493-1.326,1.493h-4.879c-.552,0-.6-.047-.6-.569V13.22a26.1,26.1,0,0,0,6.912-2.024.19.19,0,0,0,.105-.125.2.2,0,0,0,.006-.048.208.208,0,0,0-.036-.111l-.688-.946a.191.191,0,0,0-.234-.06,22.385,22.385,0,0,1-6.065,1.979V9.993a.187.187,0,0,0-.189-.186h-1.124a.188.188,0,0,0-.191.186v4.294c0,1.707,1.089,1.85,2.107,1.85m-8.9.952a.186.186,0,0,0-.186.187v8.861a.186.186,0,0,0,.186.187h14.048a.186.186,0,0,0,.187-.187V17.277a.186.186,0,0,0-.187-.187Zm12.713,7.891H197.98V23.462h11.378Zm0-2.82H197.98V20.979h11.378Zm0-2.462H197.98V18.411h11.378Zm3.892,8.4a.187.187,0,0,0-.147-.089,19.356,19.356,0,0,1-6.227-1.623.179.179,0,0,0-.209.03l-.833.778a.19.19,0,0,0-.059.164.2.2,0,0,0,.1.141,20.978,20.978,0,0,0,6.685,2.04.19.19,0,0,0,.2-.112l.5-1.157a.192.192,0,0,0-.01-.174M194.43,14.509a18.99,18.99,0,0,0,2.942-1.206v2.941a.189.189,0,0,0,.189.188h1.1a.187.187,0,0,0,.187-.188V12.495a10.68,10.68,0,0,0,2.614-1.969.193.193,0,0,0,.054-.133.1.1,0,0,0,0-.033.182.182,0,0,0-.105-.137L200.289,9.7a.19.19,0,0,0-.221.046,14.838,14.838,0,0,1-6.285,3.4.184.184,0,0,0-.124.106.192.192,0,0,0,.006.165l.541,1.011a.191.191,0,0,0,.223.09m6.018,11.984a.2.2,0,0,0-.19-.023,24.855,24.855,0,0,1-6.057,1.587.184.184,0,0,0-.139.1.188.188,0,0,0,0,.172l.543,1.133a.187.187,0,0,0,.2.1,30.235,30.235,0,0,0,6.59-2.012.192.192,0,0,0,.109-.151.194.194,0,0,0-.074-.171Z" transform="translate(-14.924 -0.746)" fill="#1a1311"/>
    </g>
  </g>
</svg>
