<svg xmlns="http://www.w3.org/2000/svg" xmlns:xlink="http://www.w3.org/1999/xlink" width="77.224" height="100" viewBox="0 0 77.224 100">
  <defs>
    <clipPath id="clip-path">
      <rect id="Rectangle_6541" data-name="Rectangle 6541" width="77.224" height="100" fill="#41a9a5"/>
    </clipPath>
  </defs>
  <g id="Group_75359" data-name="Group 75359" clip-path="url(#clip-path)">
    <path id="Path_12722" data-name="Path 12722" d="M105.958,207.912H85.234a1.435,1.435,0,1,0,0,2.87h20.725a1.435,1.435,0,0,0,0-2.87" transform="translate(-46.802 -116.119)" fill="#41a9a5"/>
    <path id="Path_12723" data-name="Path 12723" d="M101.18,16.922v-.19a2.657,2.657,0,0,0-2.649-2.649H92.221a2.657,2.657,0,0,0-2.649,2.649v.19a2.657,2.657,0,0,0,2.649,2.649h6.309a2.657,2.657,0,0,0,2.649-2.649" transform="translate(-50.026 -7.865)" fill="#41a9a5"/>
    <path id="Path_12724" data-name="Path 12724" d="M121.781,19.631a2.744,2.744,0,1,0-2.744-2.744,2.744,2.744,0,0,0,2.744,2.744" transform="translate(-66.482 -7.899)" fill="#41a9a5"/>
    <path id="Path_12725" data-name="Path 12725" d="M132.1,74.02a1.552,1.552,0,0,0-1.99-.928L118.54,77.3a1.553,1.553,0,1,0,1.062,2.918l11.57-4.211a1.553,1.553,0,0,0,.928-1.99" transform="translate(-65.634 -40.769)" fill="#41a9a5"/>
    <path id="Path_12726" data-name="Path 12726" d="M121.2,43.342a1.553,1.553,0,0,0-2.183.231l-7.611,9.413a1.553,1.553,0,0,0,2.415,1.952l7.611-9.413a1.552,1.552,0,0,0-.231-2.183" transform="translate(-62.03 -24.014)" fill="#41a9a5"/>
    <path id="Path_12727" data-name="Path 12727" d="M138.017,102.99l-11.881-2.318a1.553,1.553,0,0,0-.6,3.048l11.881,2.318a1.553,1.553,0,0,0,.6-3.048" transform="translate(-69.414 -56.209)" fill="#41a9a5"/>
    <path id="Path_12728" data-name="Path 12728" d="M68.284,0H29.305a8.95,8.95,0,0,0-8.94,8.94V36.188L5.7,41.525a4.593,4.593,0,0,0-2.855,5.518,11.12,11.12,0,0,0,6.71,18.437,4.577,4.577,0,0,0,5.735,2.392l.444-.161,4.631,7.657V91.06a8.95,8.95,0,0,0,8.94,8.94H68.284a8.95,8.95,0,0,0,8.94-8.94V8.94A8.95,8.95,0,0,0,68.284,0m-34.1,58.43L26.246,36.613l14-11.678L52.418,58.377ZM23.708,38.021l7.629,20.961-8.672,3.156L15.037,41.177Zm7.235,31.528-1.162-1.922,2.5-.912,1.163,1.922ZM3.366,57.294a8.251,8.251,0,0,1,.64-7.006L8.36,62.249a8.25,8.25,0,0,1-4.994-4.955m9.627,7.828a1.712,1.712,0,0,1-.891-.972L5.651,46.427a1.725,1.725,0,0,1,1.03-2.208l5.662-2.06,7.629,20.96L14.31,65.179a1.712,1.712,0,0,1-1.317-.057m13.871-1.461.992,1.641a2.183,2.183,0,0,0-.943,3.119l1.86,3.077a2.207,2.207,0,0,0,2.641.931l.617-.225,3.7,6.11A1.982,1.982,0,0,1,34.707,81.2L30.12,82.872a1.986,1.986,0,0,1-2.374-.836L18.48,66.713Zm47.491,27.4a6.077,6.077,0,0,1-6.071,6.071H29.305a6.077,6.077,0,0,1-6.071-6.071V80.113l2.059,3.4A4.854,4.854,0,0,0,31.1,85.566l4.587-1.67a4.848,4.848,0,0,0,2.49-7.065l-3.4-5.626.411-.15a2.2,2.2,0,0,0,1.133-3.212l-1.861-3.077a2.209,2.209,0,0,0-2.64-.931l-1.229.447-.98-1.62L33.353,61.3l21.113-.062a1.433,1.433,0,0,0,1.343-1.923L42.242,22.037a1.433,1.433,0,0,0-2.265-.61L23.764,34.951l-.529.192V8.94A6.078,6.078,0,0,1,29.305,2.87H68.284A6.078,6.078,0,0,1,74.355,8.94Z" transform="translate(0)" fill="#41a9a5"/>
  </g>
</svg>
