<svg xmlns="http://www.w3.org/2000/svg" xmlns:xlink="http://www.w3.org/1999/xlink" width="63.218" height="100" viewBox="0 0 63.218 100">
  <defs>
    <clipPath id="clip-path">
      <rect id="Rectangle_6504" data-name="Rectangle 6504" width="63.218" height="100" fill="#3490d1"/>
    </clipPath>
  </defs>
  <g id="Group_75340" data-name="Group 75340" clip-path="url(#clip-path)">
    <path id="Path_12650" data-name="Path 12650" d="M61.971,20.97a5.347,5.347,0,0,0-7.523-.658l-.772.648V8.968A8.978,8.978,0,0,0,44.708,0H19.753a8.978,8.978,0,0,0-8.968,8.968V25.49l-.394-.142a2.813,2.813,0,0,0-3.454,1.364L0,40.3V55.036H2.658V40.94L9.3,27.92a.149.149,0,0,1,.184-.073l.7.253a5.624,5.624,0,0,1,3.22,7.351L10.8,41.963l-.01,20.364a4.812,4.812,0,0,0-2.75.384A3.711,3.711,0,0,0,6,64.982c-.8,2.62,1.3,6.189,3.514,9.967.812,1.381,1.65,2.808,2.3,4.124.452.915.869,1.769,1.262,2.574,2.464,5.05,4.093,8.386,7.715,12.923A14.16,14.16,0,0,0,32.576,100h6.345c6.274,0,11.04-2.875,12.747-7.69,2.26-6.373,2.286-23.678,2.286-24.411v-3.03l3.022-2.535a4.892,4.892,0,0,0,.6-6.882,4.839,4.839,0,0,0-1.739-1.308l2.713-2.276a5.336,5.336,0,0,0-1.6-9.1l1.6-1.34a5.335,5.335,0,0,0-1.742-9.152l4.5-3.78h0a5.345,5.345,0,0,0,.658-7.523M13.664,41.949l2.21-5.509a8.265,8.265,0,0,0-2.21-9.289V8.968a6.1,6.1,0,0,1,6.089-6.089h7.138A7.574,7.574,0,0,1,28.706,4.52a3.749,3.749,0,0,0,.311.339,4.521,4.521,0,0,0,6.427,0,3.749,3.749,0,0,0,.311-.339A7.574,7.574,0,0,1,37.57,2.879h7.138A6.1,6.1,0,0,1,50.8,8.968V33.989l-3.86,3.24a5.335,5.335,0,0,0,1.6,9.1l-1.6,1.341a5.339,5.339,0,0,0,1.505,9.07l-1.956,1.641a4.807,4.807,0,0,0-.373.353,5.179,5.179,0,0,0-4.857-3.794,4.81,4.81,0,0,0-2.754.876A5.257,5.257,0,0,0,33.459,51.2,4.788,4.788,0,0,0,31,51.886V40.173a5.342,5.342,0,0,0-5.119-5.529,5.342,5.342,0,0,0-5.119,5.529V67.1c.021,1.62.007,3.406-.038,4.883h-.184c-.137-.243-.272-.485-.4-.71-.593-1.063-1.264-2.268-1.963-3.337a14.481,14.481,0,0,0-4.514-4.544ZM51.3,67.9c0,.175-.024,17.577-2.133,23.523-1.315,3.707-5.144,5.921-10.243,5.921H32.576a11.649,11.649,0,0,1-9.708-4.432c-3.44-4.307-4.932-7.364-7.4-12.429-.395-.809-.813-1.667-1.267-2.586-.693-1.4-1.556-2.872-2.391-4.293-1.66-2.825-3.725-6.34-3.265-7.843a1.045,1.045,0,0,1,.64-.651c1.489-.709,4.428.7,6.773,4.281.648.99,1.266,2.1,1.865,3.176,1.42,2.55,2.21,3.9,3.27,4.308a1.4,1.4,0,0,0,1.3-.157c.585-.405,1.136-.788,1.025-9.634V40.173A2.694,2.694,0,0,1,25.879,37.3a2.694,2.694,0,0,1,2.461,2.872V67.9H31V56.731a2.693,2.693,0,0,1,2.461-2.871,2.693,2.693,0,0,1,2.461,2.871V68.744h2.875V60.471A2.693,2.693,0,0,1,41.256,57.6a2.693,2.693,0,0,1,2.461,2.872V69.59h2.657V64.482a2.491,2.491,0,1,1,4.923,0Zm3.97-7.6-1.909,1.6a5.187,5.187,0,0,0-3.542-2.842L52.4,56.886A2.227,2.227,0,1,1,55.267,60.3m1.906-14.245a2.682,2.682,0,0,1-.331,3.78l-4.749,3.984a2.682,2.682,0,0,1-3.448-4.11l4.749-3.984a2.66,2.66,0,0,1,1.719-.628c.079,0,.159,0,.239.01a2.667,2.667,0,0,1,1.821.948m0-10.442a2.68,2.68,0,0,1-.331,3.779l-4.749,3.985a2.683,2.683,0,0,1-3.448-4.111l4.749-3.984a2.66,2.66,0,0,1,1.719-.628c.079,0,.159,0,.239.01a2.668,2.668,0,0,1,1.821.949M59.6,26.458l-5.929,4.975v-7l2.481-2.081a2.682,2.682,0,1,1,3.448,4.11" fill="#3490d1"/>
    <path id="Path_12651" data-name="Path 12651" d="M32.23,33.077A11.51,11.51,0,1,0,20.72,21.566,11.523,11.523,0,0,0,32.23,33.077m0-20.142A8.631,8.631,0,1,1,23.6,21.566a8.642,8.642,0,0,1,8.632-8.631" fill="#3490d1"/>
    <path id="Path_12652" data-name="Path 12652" d="M38.554,19.733,36.519,17.7l-5.294,5.294-2.456-2.456-2.035,2.036,4.491,4.491Z" fill="#3490d1"/>
  </g>
</svg>
