<svg xmlns="http://www.w3.org/2000/svg" xmlns:xlink="http://www.w3.org/1999/xlink" width="109.01" height="100" viewBox="0 0 109.01 100">
  <defs>
    <clipPath id="clip-path">
      <rect id="Rectangle_6509" data-name="Rectangle 6509" width="109.01" height="100" fill="none"/>
    </clipPath>
  </defs>
  <g id="Group_75343" data-name="Group 75343" transform="translate(0 -5)">
    <g id="Group_75342" data-name="Group 75342" transform="translate(0 5)" clip-path="url(#clip-path)">
      <path id="Path_12653" data-name="Path 12653" d="M24.714,100.032H6.927A6.935,6.935,0,0,0,0,106.959v40.71A6.935,6.935,0,0,0,6.927,154.6H24.714a6.935,6.935,0,0,0,6.927-6.927v-40.71a6.935,6.935,0,0,0-6.927-6.927m3.974,47.637a3.979,3.979,0,0,1-3.974,3.974H6.927a3.979,3.979,0,0,1-3.974-3.974v-40.71a3.979,3.979,0,0,1,3.974-3.974H24.714a3.979,3.979,0,0,1,3.974,3.974Z" transform="translate(0 -54.596)" fill="#3490d1"/>
      <path id="Path_12654" data-name="Path 12654" d="M31.947,204.3H20.934a1.476,1.476,0,0,0,0,2.952H31.947a1.476,1.476,0,0,0,0-2.952" transform="translate(-10.62 -111.503)" fill="#3490d1"/>
      <path id="Path_12655" data-name="Path 12655" d="M66.563,66.162v2.952A14.994,14.994,0,0,1,81.54,84.092h2.952a17.95,17.95,0,0,0-17.929-17.93" transform="translate(-36.329 -36.11)" fill="#3490d1"/>
      <path id="Path_12656" data-name="Path 12656" d="M72.971,94.387h2.952a9.372,9.372,0,0,0-9.362-9.362v2.952a6.417,6.417,0,0,1,6.409,6.409" transform="translate(-36.329 -46.405)" fill="#3490d1"/>
      <path id="Path_12657" data-name="Path 12657" d="M145.254,96.947h3.969a1.476,1.476,0,0,0,0-2.952h-3.969a1.476,1.476,0,1,0,0,2.952" transform="translate(-78.472 -51.301)" fill="#3490d1"/>
      <path id="Path_12658" data-name="Path 12658" d="M141.664,1.62a5.524,5.524,0,0,0-.818-.675q-.221-.149-.456-.277A5.5,5.5,0,0,0,137.76,0H68.322a5.5,5.5,0,0,0-2.631.668q-.235.127-.456.277A5.539,5.539,0,0,0,62.8,5.524V25.51h1.71c.417,0,.831.013,1.242.036V5.524a2.575,2.575,0,0,1,2.572-2.572H137.76a2.575,2.575,0,0,1,2.572,2.572V38.443H84.849A22.32,22.32,0,0,1,85.993,41.4h54.339v2.967a2.575,2.575,0,0,1-2.572,2.572H86.953c.016.347.026.7.026,1.047v1.9h8.712V53.9c0,.007,0,.015,0,.022,0,.175-.01.348-.026.519-.006.062-.015.124-.023.185-.015.115-.031.229-.052.342q-.02.11-.045.218c-.021.095-.046.189-.072.282s-.045.166-.072.247c-.018.055-.039.107-.059.161a5.856,5.856,0,0,1-3.651,3.555c0,.015.007.031.012.046a5.708,5.708,0,0,1-1.84.308H87.79a3.837,3.837,0,0,0-3.833,3.833v.553a3.837,3.837,0,0,0,3.833,3.833h30.5a3.837,3.837,0,0,0,3.833-3.833v-.553a3.837,3.837,0,0,0-3.833-3.833H116.22a5.707,5.707,0,0,1-1.84-.308c0-.015.007-.031.012-.046a5.858,5.858,0,0,1-3.652-3.555c-.019-.054-.04-.106-.058-.161-.027-.081-.049-.164-.072-.247s-.051-.187-.072-.282q-.024-.108-.045-.218c-.021-.113-.038-.228-.052-.342-.008-.062-.017-.123-.023-.185-.016-.171-.025-.344-.026-.519,0-.008,0-.015,0-.022V49.886H137.76a5.531,5.531,0,0,0,5.525-5.524V5.524a5.506,5.506,0,0,0-1.62-3.9M98.644,53.9V49.886h8.794V53.9a8.736,8.736,0,0,0,2.283,5.886H96.361A8.736,8.736,0,0,0,98.644,53.9m19.648,8.838a.893.893,0,0,1,.881.881v.553a.893.893,0,0,1-.881.881H87.79a.893.893,0,0,1-.881-.881v-.553a.893.893,0,0,1,.881-.881Z" transform="translate(-34.274 0)" fill="#3490d1"/>
      <path id="Path_12659" data-name="Path 12659" d="M118.072,16.768a.929.929,0,0,0-.93-.93h-11.9a.93.93,0,0,0-.93.93V26.8a.93.93,0,0,0,.93.93h11.9a.93.93,0,0,0,.93-.93Zm-11.9,9.105V17.7h10.039v.316l-4.75,4.75-2.33-2.33-1.315,1.315,3.646,3.646,4.75-4.751v5.228Z" transform="translate(-56.932 -8.644)" fill="#3490d1"/>
      <rect id="Rectangle_6505" data-name="Rectangle 6505" width="17.095" height="1.86" transform="translate(64.349 9.631)" fill="#3490d1"/>
      <rect id="Rectangle_6506" data-name="Rectangle 6506" width="25.804" height="1.86" transform="translate(64.349 15.222)" fill="#3490d1"/>
      <path id="Path_12660" data-name="Path 12660" d="M118.072,50.039a.93.93,0,0,0-.93-.93h-11.9a.93.93,0,0,0-.93.93V60.075a.93.93,0,0,0,.93.93h11.9a.93.93,0,0,0,.93-.93Zm-11.9,9.105V50.969h10.039v.316l-4.75,4.751-2.33-2.33-1.315,1.315,3.646,3.646,4.75-4.751v5.228Z" transform="translate(-56.932 -26.803)" fill="#3490d1"/>
      <rect id="Rectangle_6507" data-name="Rectangle 6507" width="22.471" height="1.86" transform="translate(64.349 24.743)" fill="#3490d1"/>
      <rect id="Rectangle_6508" data-name="Rectangle 6508" width="19.388" height="1.86" transform="translate(64.349 30.334)" fill="#3490d1"/>
    </g>
  </g>
</svg>
