<svg id="Group_75372" data-name="Group 75372" xmlns="http://www.w3.org/2000/svg" xmlns:xlink="http://www.w3.org/1999/xlink" width="100" height="65.687" viewBox="0 0 100 65.687">
  <defs>
    <clipPath id="clip-path">
      <rect id="Rectangle_6546" data-name="Rectangle 6546" width="100" height="65.687" fill="#41a9a5"/>
    </clipPath>
  </defs>
  <g id="Group_75371" data-name="Group 75371" clip-path="url(#clip-path)">
    <path id="Path_12740" data-name="Path 12740" d="M86.893,40.795V28.745A15.617,15.617,0,0,0,74.557,13.5v-.3a3.923,3.923,0,0,0-3.918-3.918H69.432a3.922,3.922,0,0,0-3.918,3.918v.3A15.626,15.626,0,0,0,53.465,25.785H8.2a8.214,8.214,0,0,0-8.2,8.2V62.663a8.213,8.213,0,0,0,8.2,8.2H57.4a8.213,8.213,0,0,0,8.2-8.2V53.6a8.933,8.933,0,0,0,12.452-3.786h10.4a1.437,1.437,0,0,0,1.437-1.437V46.469a6.841,6.841,0,0,0-2.994-5.674M8.2,28.438h44.98c0,.1-.007.2-.007.307V34.4L36.05,47.336a5.412,5.412,0,0,1-6.5,0L5.486,29.154A5.512,5.512,0,0,1,8.2,28.438M57.4,68.214H8.2a5.557,5.557,0,0,1-5.551-5.551V33.989A5.515,5.515,0,0,1,3.532,31L21.391,44.5,8.291,57.574a1.327,1.327,0,0,0,1.875,1.878l13.363-13.34,4.423,3.341a8.077,8.077,0,0,0,9.7,0l4.423-3.341,13.363,13.34a1.326,1.326,0,1,0,1.874-1.878L44.209,44.5l8.968-6.776v3.074a6.842,6.842,0,0,0-2.993,5.674v1.907a1.437,1.437,0,0,0,1.437,1.437h10.4a8.983,8.983,0,0,0,.928,1.473V62.663A5.557,5.557,0,0,1,57.4,68.214m12.639-16.3A6.058,6.058,0,0,1,65.6,49.978v-.164h9.022a6.064,6.064,0,0,1-4.588,2.1m16.977-4.971H53.059v-.47a3.99,3.99,0,0,1,2.2-3.575,1.438,1.438,0,0,0,.788-1.283V28.745A12.729,12.729,0,0,1,67.134,16.14a1.437,1.437,0,0,0,1.255-1.426V13.205a1.045,1.045,0,0,1,1.044-1.044h1.207a1.045,1.045,0,0,1,1.044,1.044v1.509a1.437,1.437,0,0,0,1.255,1.426A12.729,12.729,0,0,1,84.018,28.745V41.611a1.438,1.438,0,0,0,.789,1.283,3.99,3.99,0,0,1,2.2,3.575Z" transform="translate(0 -5.18)" fill="#41a9a5"/>
    <path id="Path_12741" data-name="Path 12741" d="M103.83,2.412,102.266,0A27.643,27.643,0,0,0,90.613,15.9l2.773.758A24.772,24.772,0,0,1,103.83,2.412" transform="translate(-50.543 -0.001)" fill="#41a9a5"/>
    <path id="Path_12742" data-name="Path 12742" d="M105.755,24.055l2.713.949a18.244,18.244,0,0,1,6.4-8.666l-1.711-2.31a21.108,21.108,0,0,0-7.4,10.027" transform="translate(-58.989 -7.825)" fill="#41a9a5"/>
    <path id="Path_12743" data-name="Path 12743" d="M197.811,0l-1.564,2.412a24.77,24.77,0,0,1,10.444,14.25l2.773-.758A27.644,27.644,0,0,0,197.811,0" transform="translate(-109.464)" fill="#41a9a5"/>
    <path id="Path_12744" data-name="Path 12744" d="M192.1,14.027l-1.711,2.31a18.246,18.246,0,0,1,6.4,8.666l2.713-.949a21.107,21.107,0,0,0-7.4-10.027" transform="translate(-106.198 -7.824)" fill="#41a9a5"/>
  </g>
</svg>
