<svg xmlns="http://www.w3.org/2000/svg" xmlns:xlink="http://www.w3.org/1999/xlink" width="100" height="100" viewBox="0 0 100 100">
  <defs>
    <clipPath id="clip-path">
      <rect id="Rectangle_6530" data-name="Rectangle 6530" width="100" height="100" fill="#3490d1"/>
    </clipPath>
  </defs>
  <g id="Group_75345" data-name="Group 75345" transform="translate(-83 -120)">
    <g id="Group_75355" data-name="Group 75355" transform="translate(83 120)">
      <g id="Group_75354" data-name="Group 75354" clip-path="url(#clip-path)">
        <path id="Path_12697" data-name="Path 12697" d="M123.147,268.534a7.81,7.81,0,0,1,.007,2.241H133.83a7.795,7.795,0,0,1,.008-2.241Z" transform="translate(-80.682 -175.936)" fill="#3490d1"/>
        <path id="Path_12698" data-name="Path 12698" d="M110.242,206.016a4.461,4.461,0,0,0-4.161-2.888H84.148a4.451,4.451,0,0,0-3.6,1.847L74.7,213.087,64.465,215.87a3.006,3.006,0,0,0-2.312,2.935v6.1a3.022,3.022,0,0,0,3.018,3.019h2.4a7.81,7.81,0,0,1,.007-2.241h-2.4a.778.778,0,0,1-.777-.777v-6.1a.774.774,0,0,1,.6-.757l.04-.01,10.639-2.893a1.12,1.12,0,0,0,.616-.427l6.072-8.435a2.206,2.206,0,0,1,1.786-.914h21.934a2.209,2.209,0,0,1,2.061,1.431l2.929,7.846a2.84,2.84,0,0,1,.18,1V224.9a.778.778,0,0,1-.777.777h-.988a7.794,7.794,0,0,1,.008,2.241h.981a3.022,3.022,0,0,0,3.018-3.019v-9.261a5.073,5.073,0,0,0-.322-1.781Z" transform="translate(-40.721 -133.084)" fill="#3490d1"/>
        <path id="Path_12699" data-name="Path 12699" d="M126.563,215.018h-9.069a.231.231,0,0,0-.18.075L113,221.33h13.564Z" transform="translate(-74.034 -140.874)" fill="#3490d1"/>
        <path id="Path_12700" data-name="Path 12700" d="M171.593,215.385a.566.566,0,0,0-.529-.367h-9.182v6.312h11.654a.191.191,0,0,0,.179-.259Z" transform="translate(-106.06 -140.874)" fill="#3490d1"/>
        <path id="Path_12701" data-name="Path 12701" d="M88.633,253.738a6.252,6.252,0,1,0,6.252,6.252,6.259,6.259,0,0,0-6.252-6.252m0,10.262a4.011,4.011,0,1,1,4.01-4.011A4.015,4.015,0,0,1,88.633,264" transform="translate(-53.974 -166.242)" fill="#3490d1"/>
        <path id="Path_12702" data-name="Path 12702" d="M164.906,253.738a6.252,6.252,0,1,0,6.252,6.252,6.259,6.259,0,0,0-6.252-6.252m0,10.262a4.011,4.011,0,1,1,4.011-4.011A4.015,4.015,0,0,1,164.906,264" transform="translate(-103.946 -166.242)" fill="#3490d1"/>
        <path id="Path_12703" data-name="Path 12703" d="M190.781,91.02l8.055-8.055-11.29-11.289-8.055,8.055ZM185.9,82.965l1.65-1.65,1.65,1.65-1.65,1.65Zm3.235,3.235,1.65-1.65,1.65,1.65-1.65,1.65Zm6.535-3.235-1.65,1.65-1.65-1.65,1.65-1.65Zm-3.235-3.235-1.65,1.65-1.65-1.65,1.65-1.65ZM189.2,76.5l-1.65,1.65L185.9,76.5l1.65-1.65Zm-3.234,3.235-1.65,1.65-1.65-1.65,1.65-1.65Z" transform="translate(-117.598 -46.96)" fill="#3490d1"/>
        <path id="Path_12704" data-name="Path 12704" d="M253.245,137.374l-11.289-11.289L233.9,134.14l11.29,11.289Zm-3.17,0-1.65,1.65-1.65-1.65,1.65-1.65Zm-3.235-3.235-1.65,1.65-1.65-1.65,1.65-1.65Zm-3.235-3.235-1.65,1.65-1.65-1.65,1.65-1.65Zm-6.535,3.235,1.65-1.65,1.65,1.65-1.65,1.65Zm3.235,3.235,1.65-1.65,1.65,1.65-1.65,1.65Zm3.235,3.235,1.65-1.65,1.65,1.65-1.65,1.65Z" transform="translate(-153.245 -82.607)" fill="#3490d1"/>
        <path id="Path_12705" data-name="Path 12705" d="M216.55,110.543l6.565,6.565,8.066-8.067-1.133-1.133,1.247-3.136-2.41-2.41-3.136,1.247-1.133-1.133Zm6.565,3.4-3.4-3.4,4.9-4.9,3.4,3.4Zm5.228-8.948.324.325-.345.868-.847-.847Z" transform="translate(-141.877 -67.065)" fill="#3490d1"/>
        <path id="Path_12706" data-name="Path 12706" d="M193.82,131.181l-.793.793,3.858,3.857a2.683,2.683,0,0,0,3.484,3.484l3.857,3.857.792-.793c1.787-1.787,2.378-6.366-1.227-9.971s-8.185-3.014-9.972-1.227M204,139.772l-7.568-7.567A6.485,6.485,0,0,1,204,139.772" transform="translate(-126.466 -85.019)" fill="#3490d1"/>
        <path id="Path_12707" data-name="Path 12707" d="M185.766,165.413h1.121v-2.241h-1.121a7.064,7.064,0,0,1-7.056-7.056v-1.121h-2.241v1.121a9.308,9.308,0,0,0,9.3,9.3" transform="translate(-115.617 -101.548)" fill="#3490d1"/>
        <path id="Path_12708" data-name="Path 12708" d="M189.481,154.995v1.121a4.815,4.815,0,0,0,4.81,4.81h1.121v-2.241h-1.121a2.571,2.571,0,0,1-2.569-2.569v-1.121Z" transform="translate(-124.143 -101.548)" fill="#3490d1"/>
        <path id="Path_12709" data-name="Path 12709" d="M37.024,69.875A7.875,7.875,0,0,1,39.252,67.8H4.634A2.4,2.4,0,0,1,2.241,65.4V4.633A2.4,2.4,0,0,1,4.634,2.24h47.9A2.4,2.4,0,0,1,54.93,4.633V65.4a2.372,2.372,0,0,1-.32,1.191h2.4a4.614,4.614,0,0,0,.161-1.191V4.633A4.639,4.639,0,0,0,52.538,0H4.634A4.639,4.639,0,0,0,0,4.633V65.4a4.639,4.639,0,0,0,4.634,4.634H36.907Z" transform="translate(0 0.001)" fill="#3490d1"/>
        <path id="Path_12710" data-name="Path 12710" d="M40.254,31.009a1.121,1.121,0,0,0-1.121-1.121H24.795a1.121,1.121,0,0,0-1.121,1.121V43.1a1.12,1.12,0,0,0,1.121,1.121H39.133A1.121,1.121,0,0,0,40.254,43.1ZM25.915,41.981V32.129h12.1v.381l-5.725,5.725L29.48,35.427,27.9,37.012,32.288,41.4l5.725-5.725v6.3Z" transform="translate(-15.511 -19.582)" fill="#3490d1"/>
        <rect id="Rectangle_6524" data-name="Rectangle 6524" width="9.653" height="2.241" transform="translate(28.611 13.243)" fill="#3490d1"/>
        <rect id="Rectangle_6525" data-name="Rectangle 6525" width="20.147" height="2.241" transform="translate(28.611 19.981)" fill="#3490d1"/>
        <path id="Path_12711" data-name="Path 12711" d="M40.254,83.822A1.121,1.121,0,0,0,39.133,82.7H24.795a1.121,1.121,0,0,0-1.121,1.121V95.914a1.121,1.121,0,0,0,1.121,1.121H39.133a1.121,1.121,0,0,0,1.121-1.121ZM25.915,94.794V84.942h12.1v.381l-5.725,5.725L29.48,88.24,27.9,89.825l4.392,4.393,5.725-5.725v6.3Z" transform="translate(-15.511 -54.183)" fill="#3490d1"/>
        <rect id="Rectangle_6526" data-name="Rectangle 6526" width="16.131" height="2.241" transform="translate(28.611 31.454)" fill="#3490d1"/>
        <rect id="Rectangle_6527" data-name="Rectangle 6527" width="12.416" height="2.241" transform="translate(28.611 38.192)" fill="#3490d1"/>
        <path id="Path_12712" data-name="Path 12712" d="M39.133,135.514H24.795a1.121,1.121,0,0,0-1.121,1.121v12.092a1.12,1.12,0,0,0,1.121,1.121H39.133a1.121,1.121,0,0,0,1.121-1.121V136.635a1.121,1.121,0,0,0-1.121-1.121M25.915,147.606v-9.851h12.1v.381l-5.725,5.725-2.808-2.808L27.9,142.638l4.392,4.392,5.725-5.724v6.3Z" transform="translate(-15.511 -88.785)" fill="#3490d1"/>
        <rect id="Rectangle_6528" data-name="Rectangle 6528" width="11.078" height="2.241" transform="translate(28.611 49.666)" fill="#3490d1"/>
        <rect id="Rectangle_6529" data-name="Rectangle 6529" width="17.168" height="2.241" transform="translate(28.611 56.403)" fill="#3490d1"/>
      </g>
    </g>
  </g>
</svg>
