<svg xmlns="http://www.w3.org/2000/svg" xmlns:xlink="http://www.w3.org/1999/xlink" width="100" height="86.073" viewBox="0 0 100 86.073">
  <defs>
    <clipPath id="clip-path">
      <rect id="Rectangle_6503" data-name="Rectangle 6503" width="100" height="86.073" transform="translate(0 0)" fill="#3490d1"/>
    </clipPath>
  </defs>
  <g id="Group_75338" data-name="Group 75338" transform="translate(0 0)" clip-path="url(#clip-path)">
    <path id="Path_12642" data-name="Path 12642" d="M17.369,20.908v3.045a15.986,15.986,0,0,0,31.973,0V20.908a15.986,15.986,0,1,0-31.973,0M33.356,7.788a13.135,13.135,0,0,1,13.12,13.12v3.045a13.12,13.12,0,1,1-26.24,0V20.908a13.135,13.135,0,0,1,13.12-13.12" fill="#3490d1"/>
    <path id="Path_12643" data-name="Path 12643" d="M13.469,3.274a.408.408,0,0,1,.408-.408h9.448V0H13.877A3.278,3.278,0,0,0,10.6,3.274V14.139h2.867Z" fill="#3490d1"/>
    <path id="Path_12644" data-name="Path 12644" d="M53.243,3.274V14.139H56.11V3.274A3.277,3.277,0,0,0,52.836,0H43.387V2.866h9.449a.408.408,0,0,1,.407.408" fill="#3490d1"/>
    <path id="Path_12645" data-name="Path 12645" d="M13.877,44.861h9.448V41.994H13.877a.408.408,0,0,1-.408-.407V30.722H10.6V41.587a3.277,3.277,0,0,0,3.274,3.274" fill="#3490d1"/>
    <path id="Path_12646" data-name="Path 12646" d="M56.109,30.722H53.242V41.587a.408.408,0,0,1-.407.408H43.386v2.866h9.449a3.277,3.277,0,0,0,3.274-3.274Z" fill="#3490d1"/>
    <path id="Path_12647" data-name="Path 12647" d="M14.607,48.9A14.624,14.624,0,0,0,0,63.511v6.718H2.867V63.511a11.753,11.753,0,0,1,11.74-11.74h37.5c.346,0,.688.018,1.027.047a17.268,17.268,0,0,1,1.447-2.7,14.619,14.619,0,0,0-2.474-.214Z" fill="#3490d1"/>
    <path id="Path_12648" data-name="Path 12648" d="M88.814,45.411V38.752c0-5.279-4.911-9.574-10.947-9.574s-10.947,4.3-10.947,9.574v6.659A13.339,13.339,0,0,0,55.734,58.556v14.2A13.334,13.334,0,0,0,69.052,86.073h17.63A13.333,13.333,0,0,0,100,72.755v-14.2A13.338,13.338,0,0,0,88.814,45.411M77.867,32.265c4.334,0,7.86,2.91,7.86,6.487v6.487H70.007V38.752c0-3.577,3.526-6.487,7.86-6.487m19.046,40.49A10.242,10.242,0,0,1,86.682,82.986H69.052A10.243,10.243,0,0,1,58.821,72.755v-14.2a10.242,10.242,0,0,1,10.231-10.23h17.63a10.242,10.242,0,0,1,10.231,10.23Z" fill="#3490d1"/>
    <path id="Path_12649" data-name="Path 12649" d="M77.867,57.4a5.4,5.4,0,0,0-3.308,9.669v6.853h6.616V67.064A5.4,5.4,0,0,0,77.867,57.4" fill="#3490d1"/>
  </g>
</svg>
