<svg xmlns="http://www.w3.org/2000/svg" xmlns:xlink="http://www.w3.org/1999/xlink" width="96.552" height="100" viewBox="0 0 96.552 100">
  <defs>
    <clipPath id="clip-path">
      <rect id="Rectangle_6523" data-name="Rectangle 6523" width="96.552" height="100" fill="#41a9a5"/>
    </clipPath>
  </defs>
  <g id="Group_75353" data-name="Group 75353" transform="translate(0 -6)">
    <path id="Path_12685" data-name="Path 12685" d="M114.958,188.107h7.3v14.57h-7.3Zm17.293-9.719h7.3v24.289h-7.3Zm17.292-16.008h7.3v40.3h-7.3Zm-2.241-2.241v42.538h-5.51v-26.53H130.009v26.53H124.5V185.866H112.717v16.811H105.88v2.241h60.041v-2.241h-6.837V160.139Z" transform="translate(-69.37 -98.918)" fill="#41a9a5"/>
    <g id="Group_75352" data-name="Group 75352">
      <g id="Group_75351" data-name="Group 75351" transform="translate(0 6)" clip-path="url(#clip-path)">
        <rect id="Rectangle_6522" data-name="Rectangle 6522" width="30.781" height="9.3" rx="4.463" transform="translate(7.909 8.038)" fill="#41a9a5"/>
        <path id="Path_12686" data-name="Path 12686" d="M26.015,67.651a3.078,3.078,0,1,0,3.078,3.078,3.087,3.087,0,0,0-3.078-3.078" transform="translate(-15.028 -44.323)" fill="#41a9a5"/>
        <path id="Path_12687" data-name="Path 12687" d="M61.721,67.651A3.078,3.078,0,1,0,64.8,70.729a3.087,3.087,0,0,0-3.078-3.078" transform="translate(-38.421 -44.323)" fill="#41a9a5"/>
        <path id="Path_12688" data-name="Path 12688" d="M97.428,67.651a3.078,3.078,0,1,0,3.078,3.078,3.087,3.087,0,0,0-3.078-3.078" transform="translate(-61.815 -44.323)" fill="#41a9a5"/>
        <path id="Path_12689" data-name="Path 12689" d="M26.015,103.358a3.078,3.078,0,1,0,3.078,3.078,3.087,3.087,0,0,0-3.078-3.078" transform="translate(-15.028 -67.717)" fill="#41a9a5"/>
        <path id="Path_12690" data-name="Path 12690" d="M61.721,103.358a3.078,3.078,0,1,0,3.078,3.078,3.087,3.087,0,0,0-3.078-3.078" transform="translate(-38.421 -67.717)" fill="#41a9a5"/>
        <path id="Path_12691" data-name="Path 12691" d="M26.015,139.064a3.078,3.078,0,1,0,3.078,3.078,3.087,3.087,0,0,0-3.078-3.078" transform="translate(-15.028 -91.111)" fill="#41a9a5"/>
        <path id="Path_12692" data-name="Path 12692" d="M5.344,60.079A3.279,3.279,0,0,1,2.069,56.8V5.344A3.278,3.278,0,0,1,5.344,2.069H41.256a3.279,3.279,0,0,1,3.275,3.275V38.472q1.048.061,2.069.22V5.344A5.35,5.35,0,0,0,41.256,0H5.344A5.35,5.35,0,0,0,0,5.344V56.8a5.35,5.35,0,0,0,5.344,5.344H22.236q-.12-1.021-.141-2.069Z" fill="#41a9a5"/>
        <path id="Path_12693" data-name="Path 12693" d="M97.428,103.358a3.074,3.074,0,0,0-2.186,5.239,21.054,21.054,0,0,1,5.253-1.933c.006-.075.012-.151.012-.227a3.087,3.087,0,0,0-3.078-3.078" transform="translate(-61.815 -67.717)" fill="#41a9a5"/>
        <path id="Path_12694" data-name="Path 12694" d="M61.721,139.064a3.076,3.076,0,0,0-.467,6.117,21.107,21.107,0,0,1,2.356-5.461,3.057,3.057,0,0,0-1.89-.656" transform="translate(-38.421 -91.111)" fill="#41a9a5"/>
        <path id="Path_12695" data-name="Path 12695" d="M115.65,143.365l-5.026,7.014-5.026-7.014H102.76l5.85,8.145h-4.787v1.926h5.59v1.554h-5.59v1.926h5.59v6.873h2.422v-6.873h5.59v-1.926h-5.59v-1.554h5.59v-1.926h-4.787l5.85-8.145Z" transform="translate(-67.325 -93.928)" fill="#41a9a5"/>
        <path id="Path_12696" data-name="Path 12696" d="M90.827,119.958a18.283,18.283,0,1,0,18.283,18.284,18.3,18.3,0,0,0-18.283-18.284m0,34.5a16.214,16.214,0,1,1,16.214-16.214,16.232,16.232,0,0,1-16.214,16.214" transform="translate(-47.529 -78.593)" fill="#41a9a5"/>
      </g>
    </g>
  </g>
</svg>
