<svg id="グループ_75451" data-name="グループ 75451" xmlns="http://www.w3.org/2000/svg" xmlns:xlink="http://www.w3.org/1999/xlink" width="262.185" height="249" viewBox="0 0 262.185 249">
  <defs>
    <clipPath id="clip-path">
      <rect id="長方形_6671" data-name="長方形 6671" width="262.185" height="249" fill="none"/>
    </clipPath>
  </defs>
  <g id="グループ_75450" data-name="グループ 75450" clip-path="url(#clip-path)">
    <path id="パス_12901" data-name="パス 12901" d="M292.218,204.6c-4.68.336-8.762,2.212-9.753,6.978-.775,3.729,1.544,9.955,3.407,12.873,1.812,2.839,1.042,14.677,14.021,11.986a41.816,41.816,0,0,0,5.122-2.478,10.49,10.49,0,0,0,1.91-2.384c3.05-8.3,2.911-19.437,2.911-19.437l-4-2.443c-12.318-7.394-6.97-19.17-6.97-19.17,3.883-6.281,10.449.883,10.449.883.556.891,5.536,1.474,5.536,1.474,14.73-3.736,8.89-28.106,21.07-32.754,25.093-9.577,25.887,21.329,25.887,21.329a14.91,14.91,0,0,0-.274,5.287c4.068-5.231,6.5-13.1.371-23.853a25.4,25.4,0,0,0-7.373-9s-20.5-19.277-47.086-6.8c0,0-20.138,6.412-21.468,34.091a37.663,37.663,0,0,0,6.243,23.418" transform="translate(-250.37 -126.72)" fill="#f79953"/>
    <path id="パス_12902" data-name="パス 12902" d="M62.6,974.972s-9.581-7.452-23.42,4.79l-18.1,12.242s-9.049,5.323-9.049,22.887l-1.6,53.759s-7.452,57.485,29.275,36.194l4.79-2.129H129.86l6.194-26.081,9.581,14.371s11.178,13.307,23.952,5.323c0,0,14.371-5.855,2.129-26.614l-27.678-38.323s-6.414-31.365-19.707-46.022c0,0-14.251-14.255-25.482-9.4Z" transform="translate(-8.706 -862.669)" fill="#fff"/>
    <path id="パス_12903" data-name="パス 12903" d="M171.716,454.465l-27.678-38.323s-6.414-31.365-19.707-46.022c0,0-12.96-12.954-23.9-9.941-.9-1.6-1.094-4,.232-7.636,0,0,14.37-4.4,18.761-25.157l.8-13.174s.1-2.894-.151-7.039c-.067.089-.133.179-.2.267a24.056,24.056,0,0,1-.047-3.5c-.573-6.061-1.908-13.564-4.971-18.916-3.7-5.047-9.964-8.256-20.595-4.2-12.18,4.649-6.34,29.018-21.07,32.754,0,0-4.98-.584-5.537-1.474,0,0-15.592-12.252-9.3,12.089a13.724,13.724,0,0,0,.4,1.4,18.109,18.109,0,0,0,5.421,4.8l3.327,2.03c.157-.027.314-.052.476-.09,0,0,.053.161.128.459l.072.044s0,.093,0,.261a21.069,21.069,0,0,1-1.031,11.87,42.675,42.675,0,0,1-1.88,7.306,10.489,10.489,0,0,1-1.91,2.384,41.82,41.82,0,0,1-5.122,2.478c-.185.038-.358.063-.537.1-.179.142-.362.283-.546.424-4.151-.633-10.423.186-17.965,6.858l-18.1,12.242s-9.049,5.323-9.049,22.888l-1.6,53.759s-7.452,57.485,29.275,36.194l4.79-2.129H129.86l6.194-26.081,9.581,14.371s11.178,13.307,23.952,5.323c0,0,14.371-5.855,2.129-26.613" transform="translate(-8.706 -247.417)" fill="#fff"/>
    <path id="パス_12904" data-name="パス 12904" d="M1054,1607.957c-4.424,0-9.093-1.938-13.813-5.821a37.252,37.252,0,0,1-7.744-8.851l-15.992-25.2a1.728,1.728,0,1,1,2.917-1.851l15.992,25.2a33.8,33.8,0,0,0,7.022,8.034c8.345,6.866,15.793,6.714,22.138-.453.034-.038.069-.074.105-.109.073-.074,2.143-2.181,2.342-6.832.192-4.463-1.384-12.134-9.976-23.33l-17.264-22.118a1.728,1.728,0,0,1,2.724-2.126l17.273,22.129c17.761,23.143,8.346,33.708,7.345,34.719-3.914,4.4-8.352,6.61-13.07,6.61" transform="translate(-901.208 -1369.159)" fill="#231815"/>
    <path id="パス_12905" data-name="パス 12905" d="M380.876,999.366a52.029,52.029,0,0,1-15.926-2.772,91.882,91.882,0,0,1-22.165-10.913,1.728,1.728,0,0,1,1.988-2.826,90.041,90.041,0,0,0,21.311,10.474c15.276,4.925,26.9,2.911,34.562-5.989a1.728,1.728,0,0,1,2.619,2.254c-5.585,6.49-13.182,9.772-22.389,9.772" transform="translate(-303.351 -871.372)" fill="#231815"/>
    <path id="パス_12906" data-name="パス 12906" d="M17.291,1332.678a14.886,14.886,0,0,1-8.98-2.765C-.3,1323.652-.013,1309.125,0,1308.51l1.064-65.185c.268-8.294.639-16.062,2.242-20.279a1.728,1.728,0,0,1,3.23,1.227c-1.412,3.716-1.771,11.491-2.017,19.136l-1.064,65.176c0,.15-.254,13.355,6.892,18.538,3.562,2.584,8.527,2.775,14.755.564.071-.024,4.812-1.7,13.151-8.693,7.7-6.46,20.136-18.9,35.607-41.488a1.728,1.728,0,1,1,2.851,1.952c-30.422,44.414-49.68,51.228-50.485,51.5a26.931,26.931,0,0,1-8.938,1.724" transform="translate(0 -1083.678)" fill="#231815"/>
    <path id="パス_12907" data-name="パス 12907" d="M63.22,1023.6a1.728,1.728,0,0,1-1.012-3.129L86.582,1002.9a1.727,1.727,0,1,1,2.021,2.8l-24.374,17.572a1.718,1.718,0,0,1-1.009.327" transform="translate(-54.533 -889.14)" fill="#231815"/>
    <path id="パス_12908" data-name="パス 12908" d="M135.838,1534.607a1.728,1.728,0,0,1-1.132-3.033l36.867-31.941q.048-.042.1-.079a6.424,6.424,0,0,1,5.87-.945l2.776.925a1.728,1.728,0,1,1-1.093,3.278l-2.776-.925a2.965,2.965,0,0,0-2.666.4l-36.814,31.895a1.72,1.72,0,0,1-1.131.422" transform="translate(-118.936 -1328.76)" fill="#231815"/>
    <path id="パス_12909" data-name="パス 12909" d="M142.7,1289.36a1.728,1.728,0,0,1-1.679-1.327c-4.3-18.016-23.36-29.118-23.552-29.228a1.728,1.728,0,0,1,1.715-3c.837.478,20.543,11.932,25.2,31.425a1.729,1.729,0,0,1-1.682,2.129" transform="translate(-103.411 -1113.518)" fill="#231815"/>
    <path id="パス_12910" data-name="パス 12910" d="M1060.251,1984.662a1.746,1.746,0,0,1-.341-.034,1.728,1.728,0,0,1-1.355-2.033l3.193-15.968a1.728,1.728,0,1,1,3.388.677l-3.193,15.968a1.729,1.729,0,0,1-1.692,1.389" transform="translate(-938.757 -1742.885)" fill="#231815"/>
    <path id="パス_12911" data-name="パス 12911" d="M540.153,1246.732l-16.758-3.207s-13.178-3.1-23.642,4.263c0,0-10.72,35.736-19.529,33.944,0,0,7.1,11.689,14.491,9.852l4.187-5.433a23.557,23.557,0,0,0,9.921-11.4l5.021-6.29,4.474-3.047s7.016-3.281,4.37-12.233l14.977,1.145Z" transform="translate(-425.89 -1102.253)" fill="#fff"/>
    <path id="パス_12912" data-name="パス 12912" d="M629.344,1544.036a1.728,1.728,0,0,1-.271-3.434c2.368-.379,4.187-2.654,5.945-4.854.425-.531.826-1.033,1.237-1.511a1.728,1.728,0,0,1,2.619,2.254c-.371.431-.753.909-1.157,1.415-1.966,2.459-4.412,5.518-8.1,6.108a1.758,1.758,0,0,1-.275.022" transform="translate(-556.608 -1360.116)" fill="#231815"/>
    <path id="パス_12913" data-name="パス 12913" d="M797.13,1273.163a1.72,1.72,0,0,1-1.1-.4l-4.96-4.109a1.727,1.727,0,1,1,2.2-2.66l4.96,4.11a1.727,1.727,0,0,1-1.1,3.058" transform="translate(-701.01 -1122.404)" fill="#231815"/>
    <path id="パス_12914" data-name="パス 12914" d="M666.867,1384.141c-.03,0-.061,0-.092,0a1.728,1.728,0,0,1-1.635-1.816c.2-3.764-2.105-4.137-2.2-4.151l-8.817-1.422a1.728,1.728,0,0,1,.55-3.412l8.786,1.417c1.883.269,5.424,2.241,5.135,7.749a1.727,1.727,0,0,1-1.724,1.636" transform="translate(-578.822 -1217.936)" fill="#231815"/>
    <path id="パス_12915" data-name="パス 12915" d="M659.534,1452.629a3.108,3.108,0,0,1-1.705-.495c-1.534-.978-1.845-3.043-1.833-4.622l-4.349-.621a1.728,1.728,0,0,1,.489-3.421l5.952.851a1.728,1.728,0,0,1,1.463,1.973,6.706,6.706,0,0,0,.123,2.856,3.8,3.8,0,0,0,1.179-.589,1.728,1.728,0,0,1,1.917,2.875,6.018,6.018,0,0,1-3.236,1.192" transform="translate(-576.602 -1280.136)" fill="#231815"/>
    <path id="パス_12916" data-name="パス 12916" d="M479.047,1301.1a1.728,1.728,0,0,1-1.4-2.741l8.8-12.149,7.9-20.319a7.069,7.069,0,0,1,4.574-4.2,1.728,1.728,0,0,1,.971,3.316,3.593,3.593,0,0,0-2.324,2.132l-7.983,20.526a1.71,1.71,0,0,1-.211.387l-8.928,12.329a1.726,1.726,0,0,1-1.4.715" transform="translate(-423.315 -1118.885)" fill="#231815"/>
    <path id="パス_12917" data-name="パス 12917" d="M717.9,1247.792a9.156,9.156,0,0,1-1.211-.084,1.727,1.727,0,0,1-1.44-2.161c1.326-4.923-.356-6.773-.944-7.248l-7.552-1.079a1.728,1.728,0,0,1,.489-3.421l7.936,1.133a1.737,1.737,0,0,1,.528.165c.193.1,4.3,2.245,3.352,9.062a1.847,1.847,0,0,0,.706-.449c1.04-1.024,1.044-3.206.964-3.89l-.845-5.909a1.727,1.727,0,0,1,1.846-1.967l12.367.973a1.724,1.724,0,0,0,1.366-1.8,1.76,1.76,0,0,0-1.538-1.781l-17.443-2.852-5.985.9a1.727,1.727,0,1,1-.515-3.416l6.254-.943a1.7,1.7,0,0,1,.536,0l17.711,2.9a5.232,5.232,0,0,1,4.434,5.115,5.137,5.137,0,0,1-4.181,5.269l-.2.04a1.725,1.725,0,0,1-.465.027l-10.462-.823.545,3.817c.057.484.444,4.426-1.965,6.8a5.89,5.89,0,0,1-4.289,1.619" transform="translate(-625.477 -1084.636)" fill="#231815"/>
    <path id="パス_12918" data-name="パス 12918" d="M486.22,1577.93c-12.888,0-16.321-11.937-16.356-12.06a1.728,1.728,0,0,1,3.33-.922,13.462,13.462,0,0,0,13.846,9.507,1.728,1.728,0,1,1,.157,3.452c-.331.015-.658.023-.977.023" transform="translate(-416.647 -1386.763)" fill="#231815"/>
    <path id="パス_12919" data-name="パス 12919" d="M906.8,1104.374a2.9,2.9,0,0,0-2.5-1.414H882.045a2.925,2.925,0,0,0-2.565,1.519l-21.337,38.941a2.925,2.925,0,0,0,2.562,4.33h.066l23.3-.506a2.927,2.927,0,0,0,2.522-1.559l20.285-38.434a2.9,2.9,0,0,0-.082-2.875" transform="translate(-760.727 -978.168)" fill="#231815"/>
    <path id="パス_12920" data-name="パス 12920" d="M919.551,1012.955a1.72,1.72,0,0,1-1.077-.378l-9.527-7.607a1.727,1.727,0,1,1,2.156-2.7l9.527,7.607a1.727,1.727,0,0,1-1.079,3.078" transform="translate(-805.529 -888.535)" fill="#231815"/>
    <path id="パス_12921" data-name="パス 12921" d="M998.737,1184.415l-1.915-5.646a12.224,12.224,0,0,0-2.152-4.5l-8.323-10.2s-3.218-4.079-6.293-.976a3.554,3.554,0,0,0-.524,3.385c.474,1.833,1.782,5.281,5.4,10.346l-10.2-7.369s-3.724-2.619-5.669-.284c0,0-2.164,2.164,1.417,6.8,0,0-3.776-2.291-5.952.567,0,0-1.736,2.814,2.551,7.652,0,0-5.625.75-1.94,6.7l5.086,8.02s-4,12.486,3.656,18.155l4.035,5.05,1.812-.315a17.9,17.9,0,0,0,11.366-7.049l-1.55-8.527L997.356,1193a10.708,10.708,0,0,0,1.381-8.581" transform="translate(-854.826 -1030.465)" fill="#fff"/>
    <path id="パス_12922" data-name="パス 12922" d="M960.317,1205.256a1.722,1.722,0,0,1-1.027-.34c-7.45-5.519-5.3-16.239-4.5-19.271l-4.671-7.366c-1.559-2.519-1.921-4.684-1.084-6.452a4.7,4.7,0,0,1,1.71-1.926c-3.066-4.554-1.466-7.456-1.248-7.809a1.631,1.631,0,0,1,.1-.139,5.139,5.139,0,0,1,3.923-2.106,5.4,5.4,0,0,1,.659-5.322h0c1.258-1.513,3.176-1.967,5.4-1.279a10.067,10.067,0,0,1,2.589,1.255l3.47,2.506a21.989,21.989,0,0,1-1.333-3.637,5.005,5.005,0,0,1,4.975-6.7,7.481,7.481,0,0,1,4.871,2.792l8.263,10.125a13.828,13.828,0,0,1,2.509,5.142l1.9,5.592c.013.037.024.075.034.113a12.458,12.458,0,0,1-1.6,9.965l-9.592,14.722a1.728,1.728,0,0,1-2.9-1.886l9.592-14.722a8.995,8.995,0,0,0,1.173-7.142l-1.9-5.587c-.013-.037-.024-.075-.034-.113a10.852,10.852,0,0,0-1.72-3.737c-.035-.035-.068-.073-.1-.111l-8.323-10.2a4.153,4.153,0,0,0-2.379-1.5,1.7,1.7,0,0,0-1.348.651,2.137,2.137,0,0,0-.079,1.736c.391,1.514,1.579,4.8,5.133,9.774a1.728,1.728,0,0,1-2.417,2.4l-10.2-7.369s-2.472-1.607-3.329-.579c-.065.079-.028.054-.071.089-.33.508-.407,2.044,1.529,4.552a1.727,1.727,0,0,1-2.263,2.532c-.238-.14-2.373-1.339-3.576.009-.13.4-.52,2.333,2.364,5.587a1.728,1.728,0,0,1-1.065,2.859c-.311.048-1.306.329-1.592.949s.042,1.757.893,3.132l5.076,8a1.727,1.727,0,0,1,.187,1.452c-.035.111-3.516,11.385,3.039,16.24a1.728,1.728,0,0,1-1.03,3.116" transform="translate(-841.268 -1016.923)" fill="#231815"/>
    <path id="パス_12923" data-name="パス 12923" d="M1143.166,1291.684a1.725,1.725,0,0,1-1.426-.751l-6.8-9.92a1.728,1.728,0,0,1,2.85-1.954l6.8,9.92a1.728,1.728,0,0,1-1.423,2.705" transform="translate(-1006.258 -1133.676)" fill="#231815"/>
    <path id="パス_12924" data-name="パス 12924" d="M1023.632,1290.4a1.727,1.727,0,0,1-1.547-.955l-3.784-7.568-10.723-7.974a1.728,1.728,0,1,1,2.062-2.773l11.054,8.219a1.731,1.731,0,0,1,.514.614l3.968,7.936a1.728,1.728,0,0,1-1.544,2.5" transform="translate(-892.96 -1127.012)" fill="#231815"/>
    <path id="パス_12925" data-name="パス 12925" d="M991.867,1363.063a1.728,1.728,0,0,1-1.608-1.095l-3.552-9.016c-3.271-3.235-6.8-6.065-7.912-6.346a1.728,1.728,0,0,1-.724-3.371c.733-.208,2.962-.845,11.332,7.525a1.731,1.731,0,0,1,.386.588l3.684,9.353a1.728,1.728,0,0,1-1.607,2.361m-13.144-16.472h0" transform="translate(-866.298 -1191.168)" fill="#231815"/>
    <path id="パス_12926" data-name="パス 12926" d="M1051.685,1603.928a18.656,18.656,0,0,1-4.726-.585,1.728,1.728,0,0,1,.946-3.323c.086.023,5.548,1.5,9.74-1.038,2.366-1.434,3.94-3.935,4.678-7.434a1.728,1.728,0,1,1,3.381.714c-.946,4.484-3.064,7.745-6.3,9.692a14.941,14.941,0,0,1-7.724,1.975" transform="translate(-927.391 -1410.258)" fill="#231815"/>
    <path id="パス_12927" data-name="パス 12927" d="M412.942,542.737a1.859,1.859,0,0,0-2.488-.855c-2.149,1.049-4.645-1.84-4.894-2.133-5.548-9.511-1.672-13.2-1.248-13.562a4.214,4.214,0,0,1,6.448,1.229,1.86,1.86,0,0,0,3.253-1.8,8.651,8.651,0,0,0-4.954-3.888,8.523,8.523,0,0,0-6.782,1.346c-.042.026-.082.053-.117.079-.3.223-7.374,5.6.247,18.577a1.933,1.933,0,0,0,.129.191,12.745,12.745,0,0,0,2.658,2.469,8.322,8.322,0,0,0,2.978,1.323,6.425,6.425,0,0,0,.752.111q.233.019.463.022a5.973,5.973,0,0,0,2.7-.62,1.862,1.862,0,0,0,.855-2.488" transform="translate(-353.754 -462.489)" fill="#231815"/>
    <path id="パス_12928" data-name="パス 12928" d="M467.5,584.744a1.377,1.377,0,0,0,.234,0,1.411,1.411,0,0,0,1.249-1.5c-.457-8.057-5.214-8.559-5.417-8.577a1.523,1.523,0,0,0-.416,2.61l.142.114c.109.016,2.66.463,2.961,6.062a1.37,1.37,0,0,0,1.248,1.29" transform="translate(-410.241 -509.647)" fill="#231815"/>
    <path id="パス_12929" data-name="パス 12929" d="M464.968,582.7a1.672,1.672,0,0,1-1.323-1.54c-.288-5.363-2.688-5.789-2.711-5.787a.313.313,0,0,1-.141-.062l-.142-.114a1.817,1.817,0,0,1,.5-3.113.289.289,0,0,1,.129-.018c.212.016,5.214.533,5.686,8.853a1.7,1.7,0,0,1-1.518,1.81,1.739,1.739,0,0,1-.284,0,1.631,1.631,0,0,1-.193-.029m-3.86-7.89c.493.122,2.837.987,3.124,6.319a1.076,1.076,0,0,0,.98,1.013h0a1.128,1.128,0,0,0,.186,0,1.113,1.113,0,0,0,.978-1.191c-.42-7.4-4.485-8.209-5.082-8.293a1.229,1.229,0,0,0-.273,2.08Z" transform="translate(-407.932 -507.342)" fill="#231815"/>
    <path id="パス_12930" data-name="パス 12930" d="M467.024,584.245c-.038,0-.074,0-.111-.005a1.448,1.448,0,0,1-1.315-1.36c-.3-5.541-2.793-5.978-2.9-5.993a.075.075,0,0,1-.035-.016l-.141-.114a1.6,1.6,0,0,1,.436-2.735.066.066,0,0,1,.032,0c.2.018,5.023.525,5.484,8.646a1.482,1.482,0,0,1-1.316,1.578c-.045,0-.091.005-.136.005m-4.282-7.5c.269.051,2.709.665,3,6.127a1.3,1.3,0,0,0,1.181,1.221,1.3,1.3,0,0,0,1.4-1.423c-.445-7.84-4.97-8.469-5.333-8.506a1.45,1.45,0,0,0-.38,2.478Z" transform="translate(-409.665 -509.07)" fill="#231815"/>
    <path id="パス_12931" data-name="パス 12931" d="M464.381,582.2A1.746,1.746,0,0,1,463,580.594c-.285-5.307-2.63-5.715-2.648-5.719a.459.459,0,0,1-.174-.076l-.144-.117a1.89,1.89,0,0,1,.517-3.239.457.457,0,0,1,.166-.023c.208.016,5.273.552,5.748,8.922a1.778,1.778,0,0,1-1.585,1.887,1.607,1.607,0,0,1-.163.006c-.044,0-.089,0-.132-.006a1.7,1.7,0,0,1-.2-.029m-3.813-8.03c.528.136,2.877,1.039,3.164,6.383a1,1,0,0,0,.912.944,1.016,1.016,0,0,0,.173,0,1.039,1.039,0,0,0,.912-1.113c-.411-7.235-4.271-8.119-5-8.222a1.156,1.156,0,0,0-.238,1.948Z" transform="translate(-407.358 -506.768)" fill="#231815"/>
    <path id="パス_12932" data-name="パス 12932" d="M469.051,712.1a3.6,3.6,0,1,1-3.169-3.986,3.6,3.6,0,0,1,3.169,3.986" transform="translate(-409.614 -627.977)" fill="#fff"/>
    <path id="パス_12933" data-name="パス 12933" d="M452.492,704.45a5.182,5.182,0,1,1,5.737-4.561,5.189,5.189,0,0,1-5.737,4.561m.817-7.156a2.02,2.02,0,1,0,1.778,2.236,2.022,2.022,0,0,0-1.778-2.236" transform="translate(-397.221 -615.583)" fill="#231815"/>
    <path id="パス_12934" data-name="パス 12934" d="M719.963,569.041a2.016,2.016,0,1,0,2.175-1.844,2.016,2.016,0,0,0-2.175,1.844" transform="translate(-638.498 -503.016)" fill="#231815"/>
    <path id="パス_12935" data-name="パス 12935" d="M906.593,565.1a2.016,2.016,0,1,0,2.175-1.844,2.016,2.016,0,0,0-2.175,1.844" transform="translate(-804.012 -499.519)" fill="#231815"/>
    <path id="パス_12936" data-name="パス 12936" d="M594.651,660.586c-11.194-2.993-19.3-12.478-19.694-12.946a1.853,1.853,0,0,1,2.833-2.389c.1.121,10.373,12.105,22.813,12.514a11.11,11.11,0,0,0,6.892-2.106c4.566-3.336,12.16-11.482,11.725-28.564a1.853,1.853,0,0,1,3.7-.094c.479,18.77-8.092,27.887-13.243,31.65a14.836,14.836,0,0,1-9.2,2.818,25.867,25.867,0,0,1-5.83-.883" transform="translate(-509.518 -554.46)" fill="#231815"/>
    <path id="パス_12937" data-name="パス 12937" d="M770.276,925.069a1.853,1.853,0,0,1-1.361-1.99,38.13,38.13,0,0,1,2.3-8.878,1.853,1.853,0,0,1,3.435,1.39,34.866,34.866,0,0,0-2.05,7.889,1.853,1.853,0,0,1-2.043,1.641,1.872,1.872,0,0,1-.28-.052" transform="translate(-681.908 -809.739)" fill="#231815"/>
    <path id="パス_12938" data-name="パス 12938" d="M311.451,321.038a1.866,1.866,0,0,1,.726-3.661c9.877,1.862,18.333.369,25.134-4.435,12.73-8.993,15.629-26.766,15.657-26.945.008-.049.018-.1.029-.149a15.832,15.832,0,0,1,3.256-6.9,1.866,1.866,0,0,1,2.79,2.48,12.164,12.164,0,0,0-2.4,5.219c-.252,1.556-3.451,19.626-17.157,29.326-7.662,5.422-17.083,7.128-28,5.07l-.035-.007" transform="translate(-274.894 -246.833)" fill="#231815"/>
    <path id="パス_12939" data-name="パス 12939" d="M268.961,795.667A18.19,18.19,0,0,1,263.7,793.7a1.866,1.866,0,0,1,1.924-3.2c.09.053,4.646,2.7,9.154,1.435,2.635-.739,4.815-2.711,6.482-5.86a1.866,1.866,0,1,1,3.3,1.746c-2.17,4.1-5.134,6.7-8.808,7.718a14.4,14.4,0,0,1-6.786.128" transform="translate(-233.061 -696.255)" fill="#231815"/>
    <path id="パス_12940" data-name="パス 12940" d="M810.1,299.4a1.867,1.867,0,0,1-1.239-2.758c6.435-11.2-1.24-23.511-1.319-23.634A1.866,1.866,0,0,1,810.683,271c.37.578,8.989,14.315,1.411,27.5a1.867,1.867,0,0,1-2,.9" transform="translate(-715.912 -239.578)" fill="#231815"/>
    <path id="パス_12941" data-name="パス 12941" d="M889.593,302.07a1.888,1.888,0,0,1-1.448-1.984c.837-16.593-7.875-23.362-8.247-23.642a2.026,2.026,0,0,1-.4-2.732,1.8,1.8,0,0,1,2.581-.506c.438.324,10.72,8.154,9.77,26.989a1.96,1.96,0,0,1-1.951,1.91,1.728,1.728,0,0,1-.3-.035" transform="translate(-779.673 -241.99)" fill="#231815"/>
    <path id="パス_12942" data-name="パス 12942" d="M472.56,807.823a1.684,1.684,0,0,1-1.038-2.546,32.173,32.173,0,0,0,4.035-14.236,1.682,1.682,0,1,1,3.36.181,34.916,34.916,0,0,1-4.562,15.87,1.683,1.683,0,0,1-1.8.731" transform="translate(-417.938 -700.128)" fill="#231815"/>
    <path id="パス_12943" data-name="パス 12943" d="M837.926,724.688l2.374-.078a1.3,1.3,0,1,1,.085,2.6l-2.374.078a1.3,1.3,0,1,1-.085-2.6" transform="translate(-742.004 -642.625)" fill="#231815"/>
    <path id="パス_12944" data-name="パス 12944" d="M835.971,725.541a1.556,1.556,0,0,1-.051-3.111l2.374-.078a1.556,1.556,0,1,1,.1,3.11l-2.374.078h-.052m-.034-2.6h0a1.046,1.046,0,0,0,.069,2.09l2.373-.078a1.046,1.046,0,1,0-.069-2.09Z" transform="translate(-740.008 -640.622)" fill="#231815"/>
    <path id="パス_12945" data-name="パス 12945" d="M837.357,726.785a1.374,1.374,0,0,1-.01-2.747l2.374-.078a1.382,1.382,0,0,1,1.418,1.328,1.373,1.373,0,0,1-1.328,1.418l-2.374.078h-.079m2.439-2.678h-.07l-2.374.078a1.227,1.227,0,0,0,.01,2.453h.071l2.374-.078a1.227,1.227,0,0,0-.01-2.453m-2.447,0h0Z" transform="translate(-741.428 -642.049)" fill="#231815"/>
    <path id="パス_12946" data-name="パス 12946" d="M835.4,725.046h-.049a1.629,1.629,0,0,1-.012-3.257l2.374-.078a1.634,1.634,0,0,1,1.681,1.575,1.628,1.628,0,0,1-1.575,1.682l-2.373.078H835.4m2.391-2.679h-.057l-2.373.078a.972.972,0,0,0,.007,1.942h.057l2.374-.077a.972.972,0,0,0-.007-1.943" transform="translate(-739.429 -640.053)" fill="#231815"/>
    <path id="パス_12947" data-name="パス 12947" d="M767.9,785.9a14.521,14.521,0,0,1-5.176-.908,1.728,1.728,0,0,1,1.322-3.192,11.63,11.63,0,0,0,8.177-.222,1.728,1.728,0,0,1,1.354,3.179A14.423,14.423,0,0,1,767.9,785.9" transform="translate(-675.488 -693.025)" fill="#231815"/>
    <path id="パス_12951" data-name="パス 12951" d="M691.31,470.768a1.786,1.786,0,0,1-.772-3.4c5.161-2.468,8.74-.619,8.889-.54A1.786,1.786,0,0,1,697.772,470c-.135-.065-2.285-1.032-5.693.6a1.778,1.778,0,0,1-.769.175" transform="translate(-611.508 -413.356)" fill="#231815"/>
    <path id="パス_12952" data-name="パス 12952" d="M1071.685,1140.657a1.64,1.64,0,1,1-1.64-1.64,1.64,1.64,0,0,1,1.64,1.64" transform="translate(-947.522 -1010.145)" fill="#fff"/>
    <path id="パス_12953" data-name="パス 12953" d="M1109.823,634.684A21.443,21.443,0,0,0,1098,674.025l-.821,7.392,7.574-4.44a21.45,21.45,0,1,0,5.067-42.293" transform="translate(-965.229 -562.874)" fill="#f79953"/>
    <path id="パス_12954" data-name="パス 12954" d="M1174.542,778.648h-.076a2.173,2.173,0,0,1-1.514-.691l-5.505-5.912a2.173,2.173,0,0,1,3.18-2.961l4.023,4.321,13.7-12.787a2.172,2.172,0,1,1,2.964,3.176l-15.291,14.272a2.172,2.172,0,0,1-1.482.584" transform="translate(-1034.842 -674.039)" fill="#fff"/>
    <path id="パス_12955" data-name="パス 12955" d="M1543.394,59.077a48.7,48.7,0,1,1-48.7-48.7,48.7,48.7,0,0,1,48.7,48.7" transform="translate(-1282.382 -9.199)" fill="#fff"/>
    <path id="パス_12956" data-name="パス 12956" d="M1485.492,99.756a49.878,49.878,0,1,1,49.877-49.878,49.934,49.934,0,0,1-49.877,49.878m0-97.408a47.53,47.53,0,1,0,47.53,47.53,47.584,47.584,0,0,0-47.53-47.53" transform="translate(-1273.184 -0.001)" fill="#c5c6c6"/>
    <path id="パス_12957" data-name="パス 12957" d="M1675.309,212.766h-10.841a1.174,1.174,0,1,1,0-2.347h10.841a1.174,1.174,0,1,1,0,2.347" transform="translate(-1475.103 -186.612)" fill="#f79953"/>
    <path id="パス_12958" data-name="パス 12958" d="M1664.467,223.607a1.174,1.174,0,0,1-1.174-1.174V211.592a1.174,1.174,0,1,1,2.347,0v10.841a1.174,1.174,0,0,1-1.174,1.174" transform="translate(-1475.103 -186.611)" fill="#f79953"/>
    <path id="パス_12959" data-name="パス 12959" d="M2003.08,212.766h-10.842a1.174,1.174,0,0,1,0-2.347h10.842a1.174,1.174,0,0,1,0,2.347" transform="translate(-1765.79 -186.612)" fill="#f79953"/>
    <path id="パス_12960" data-name="パス 12960" d="M2088.058,223.607a1.174,1.174,0,0,1-1.174-1.174V211.592a1.174,1.174,0,1,1,2.347,0v10.841a1.174,1.174,0,0,1-1.173,1.174" transform="translate(-1850.767 -186.611)" fill="#f79953"/>
    <path id="パス_12961" data-name="パス 12961" d="M2003.08,636.355h-10.842a1.174,1.174,0,0,1,0-2.347h10.842a1.174,1.174,0,0,1,0,2.347" transform="translate(-1765.79 -562.274)" fill="#f79953"/>
    <path id="パス_12962" data-name="パス 12962" d="M2088.058,551.377a1.174,1.174,0,0,1-1.174-1.174V539.362a1.174,1.174,0,0,1,2.347,0V550.2a1.174,1.174,0,0,1-1.173,1.174" transform="translate(-1850.767 -477.296)" fill="#f79953"/>
    <path id="パス_12963" data-name="パス 12963" d="M1675.309,636.355h-10.841a1.174,1.174,0,1,1,0-2.347h10.841a1.174,1.174,0,1,1,0,2.347" transform="translate(-1475.103 -562.274)" fill="#f79953"/>
    <path id="パス_12964" data-name="パス 12964" d="M1664.467,551.377a1.174,1.174,0,0,1-1.174-1.174V539.362a1.174,1.174,0,0,1,2.347,0V550.2a1.174,1.174,0,0,1-1.174,1.174" transform="translate(-1475.103 -477.296)" fill="#f79953"/>
    <path id="パス_12965" data-name="パス 12965" d="M1779.8,349.685a2.267,2.267,0,1,1-2.267-2.267,2.267,2.267,0,0,1,2.267,2.267" transform="translate(-1574.411 -308.11)" fill="#f79953"/>
    <path id="パス_12966" data-name="パス 12966" d="M1960.117,349.685a2.267,2.267,0,1,1-2.266-2.267,2.267,2.267,0,0,1,2.266,2.267" transform="translate(-1734.322 -308.11)" fill="#f79953"/>
    <path id="パス_12967" data-name="パス 12967" d="M1835.032,528.439a12.432,12.432,0,0,1-5.516-1.14,1.565,1.565,0,0,1,1.425-2.786,9.587,9.587,0,0,0,4.092.8,9.36,9.36,0,0,0,4.173-.84,1.565,1.565,0,1,1,1.49,2.752,12.371,12.371,0,0,1-5.663,1.217" transform="translate(-1621.762 -464.962)" fill="#f79953"/>
    <path id="パス_12968" data-name="パス 12968" d="M1864.789,423.644h-2.859a1.448,1.448,0,0,1-1.448-1.448v-5.7a1.448,1.448,0,1,1,2.9,0v4.256h1.411a1.448,1.448,0,1,1,0,2.9" transform="translate(-1649.981 -368.084)" fill="#f79953"/>
  </g>
</svg>
